<svg width="1110" height="885" viewBox="0 0 1110 885" fill="none" xmlns="http://www.w3.org/2000/svg">
<rect width="1110" height="866" fill="#FAEEC7"/>
<path d="M359.127 645.039C359.903 644.748 360.295 643.883 360.004 643.108L355.258 630.47C354.966 629.694 354.102 629.301 353.326 629.593C352.55 629.884 352.158 630.749 352.449 631.524L356.668 642.758L345.434 646.977C344.659 647.269 344.266 648.133 344.558 648.909C344.849 649.684 345.714 650.077 346.489 649.786L359.127 645.039ZM210.548 657.185L211.737 658.099L210.548 657.185ZM202.964 704.955L201.63 705.64L201.634 705.647L201.638 705.655L202.964 704.955ZM225.157 718.51L225.963 719.775L225.157 718.51ZM228.703 692.435L230.11 691.914L228.703 692.435ZM143.356 711.804L141.962 711.251L143.356 711.804ZM359.22 642.269C357.467 641.473 355.714 640.706 353.963 639.968L352.797 642.732C354.523 643.46 356.251 644.216 357.98 645.001L359.22 642.269ZM343.271 635.801C339.618 634.494 335.978 633.311 332.358 632.249L331.514 635.127C335.077 636.173 338.662 637.338 342.26 638.626L343.271 635.801ZM321.251 629.352C317.46 628.487 313.699 627.757 309.978 627.159L309.502 630.121C313.158 630.709 316.855 631.426 320.583 632.277L321.251 629.352ZM298.578 625.726C294.694 625.376 290.864 625.174 287.099 625.118L287.054 628.118C290.743 628.173 294.497 628.371 298.309 628.714L298.578 625.726ZM275.595 625.411C271.685 625.674 267.862 626.104 264.139 626.697L264.612 629.66C268.241 629.081 271.974 628.662 275.797 628.405L275.595 625.411ZM252.856 629.078C249.053 630.089 245.386 631.29 241.87 632.676L242.97 635.467C246.374 634.125 249.931 632.96 253.627 631.977L252.856 629.078ZM231.401 637.604C227.96 639.517 224.718 641.642 221.698 643.975L223.532 646.349C226.427 644.113 229.543 642.069 232.859 640.226L231.401 637.604ZM213.114 651.817C211.795 653.248 210.542 654.732 209.359 656.27L211.737 658.099C212.865 656.633 214.06 655.217 215.32 653.852L213.114 651.817ZM209.359 656.27C207.976 658.068 206.746 659.857 205.657 661.63L208.213 663.201C209.246 661.519 210.416 659.816 211.737 658.099L209.359 656.27ZM200.197 673.468C198.735 678.088 198.107 682.436 197.983 686.35L200.981 686.445C201.097 682.783 201.685 678.71 203.057 674.372L200.197 673.468ZM199.407 699.351C199.913 701.308 200.459 702.862 200.883 703.935C201.095 704.471 201.277 704.888 201.408 705.175C201.474 705.319 201.527 705.43 201.564 705.508C201.583 705.547 201.598 705.577 201.609 705.599C201.615 705.61 201.619 705.619 201.623 705.626C201.624 705.629 201.626 705.632 201.627 705.635C201.628 705.636 201.628 705.637 201.628 705.638C201.629 705.638 201.629 705.638 201.629 705.639C201.629 705.639 201.629 705.639 201.629 705.639C201.63 705.64 201.63 705.64 202.964 704.955C204.299 704.27 204.299 704.27 204.299 704.27C204.299 704.27 204.299 704.271 204.299 704.271C204.299 704.271 204.299 704.271 204.299 704.271C204.299 704.272 204.3 704.272 204.3 704.272C204.3 704.272 204.3 704.272 204.299 704.271C204.298 704.269 204.296 704.265 204.293 704.259C204.287 704.247 204.277 704.227 204.263 704.198C204.235 704.141 204.193 704.051 204.137 703.93C204.026 703.687 203.865 703.317 203.673 702.832C203.289 701.86 202.783 700.425 202.312 698.601L199.407 699.351ZM202.964 704.955C201.638 705.655 201.638 705.655 201.638 705.655C201.638 705.655 201.638 705.656 201.638 705.656C201.638 705.656 201.638 705.656 201.638 705.657C201.639 705.657 201.639 705.658 201.64 705.659C201.641 705.661 201.642 705.664 201.644 705.668C201.648 705.675 201.653 705.684 201.66 705.697C201.673 705.721 201.692 705.757 201.717 705.802C201.766 705.893 201.838 706.023 201.932 706.189C202.12 706.521 202.394 706.993 202.747 707.568C203.451 708.716 204.474 710.279 205.746 711.941L208.128 710.117C206.933 708.556 205.969 707.083 205.304 705.999C204.972 705.458 204.715 705.016 204.544 704.712C204.458 704.561 204.393 704.443 204.35 704.365C204.329 704.326 204.313 704.297 204.303 704.279C204.298 704.269 204.295 704.263 204.293 704.259C204.292 704.257 204.291 704.255 204.291 704.255C204.29 704.254 204.29 704.254 204.29 704.254C204.29 704.254 204.29 704.254 204.29 704.254C204.29 704.254 204.291 704.254 204.291 704.254C204.291 704.255 204.291 704.255 202.964 704.955ZM217.871 721.25C220.484 721.841 223.247 721.506 225.963 719.775L224.35 717.245C222.336 718.53 220.396 718.745 218.532 718.324L217.871 721.25ZM225.963 719.775C228.381 718.233 230.353 716.512 231.687 714.324L229.125 712.762C228.117 714.417 226.555 715.84 224.35 717.245L225.963 719.775ZM232.392 698.995C231.831 696.862 231.071 694.513 230.11 691.914L227.296 692.955C228.233 695.488 228.96 697.741 229.49 699.757L232.392 698.995ZM230.11 691.914C229.422 690.055 228.635 688.338 227.757 686.757L225.135 688.215C225.934 689.653 226.658 691.231 227.296 692.955L230.11 691.914ZM220.465 678.076C217.402 675.678 213.938 674.07 210.228 673.139L209.498 676.048C212.839 676.887 215.913 678.322 218.616 680.438L220.465 678.076ZM199.019 672.217C195.424 672.442 191.738 673.108 188.056 674.136L188.862 677.025C192.372 676.046 195.849 675.421 199.206 675.211L199.019 672.217ZM177.684 677.958C174.363 679.473 171.106 681.238 167.986 683.195L169.581 685.737C172.593 683.847 175.733 682.145 178.929 680.687L177.684 677.958ZM159.046 689.638C156.132 692.043 153.439 694.603 151.051 697.258L153.282 699.264C155.562 696.729 158.146 694.27 160.955 691.952L159.046 689.638ZM144.439 706.2C143.466 707.873 142.634 709.561 141.962 711.251L144.75 712.358C145.361 710.821 146.126 709.267 147.032 707.708L144.439 706.2ZM141.962 711.251C141.301 712.916 140.653 714.609 140.026 716.328L142.845 717.356C143.461 715.666 144.098 714 144.75 712.358L141.962 711.251ZM136.655 726.686C135.672 730.149 134.821 733.698 134.153 737.32L137.104 737.864C137.752 734.345 138.581 730.888 139.541 727.504L136.655 726.686ZM132.772 748.183C132.528 751.788 132.502 755.45 132.74 759.161L135.734 758.968C135.504 755.398 135.529 751.868 135.765 748.386L132.772 748.183ZM134.219 770.047C134.952 773.542 135.948 777.066 137.243 780.612L140.061 779.583C138.815 776.173 137.859 772.787 137.155 769.431L134.219 770.047ZM141.706 790.641C143.348 793.755 145.24 796.877 147.406 800.003L149.872 798.295C147.773 795.265 145.943 792.246 144.359 789.242L141.706 790.641ZM154.106 808.649C155.271 810.005 156.491 811.361 157.769 812.716L159.952 810.659C158.705 809.336 157.516 808.015 156.381 806.694L154.106 808.649Z" fill="#4E1A0A"/>
</svg>
