<svg width="1440" height="1519" viewBox="0 0 1440 1519" fill="none" xmlns="http://www.w3.org/2000/svg">
<path d="M139.207 258.643C-2.8631 291.53 -191.055 365.866 -206.402 413.332L-265 442.151V1269C-216.368 1246.26 -93.5108 1194.58 8.85654 1169.83C285.105 1103.04 657.949 1083.37 837.601 1083.37C1046.88 1083.37 1396.08 1128.72 1521.05 1128.72C1668.93 1128.72 1692.85 1034.63 1687.27 996.915V176H1605.36C1516.06 200.722 1300.29 216.711 1166.47 223.466C956.591 234.062 799.931 224.192 747.312 223.466C603.807 221.489 281.278 225.755 139.207 258.643Z" fill="#F9BB72"/>
<g clip-path="url(#clip0_17_392)">
<rect width="1440" height="553" transform="translate(0 967)" fill="#EB724C"/>
<path d="M139.207 156.643C-2.8631 189.53 -191.055 263.866 -206.402 311.332L-265 340.151V1167C-216.368 1144.26 -93.5108 1092.58 8.85654 1067.83C285.105 1001.04 657.949 981.372 837.601 981.372C1046.88 981.372 1396.08 1026.72 1521.05 1026.72C1668.93 1026.72 1692.85 932.634 1687.27 894.915V74H1605.36C1516.06 98.7221 1300.29 114.711 1166.47 121.466C956.591 132.062 799.931 122.192 747.312 121.466C603.807 119.489 281.278 123.755 139.207 156.643Z" fill="#F9BB72"/>
</g>
<g clip-path="url(#clip1_17_392)">
<path d="M1294.25 999.983C1288.93 1001.62 1286.34 1006.5 1282.83 1013.11C1279.27 1019.81 1275.77 1026.42 1278.1 1033.45C1280.21 1039.83 1285.92 1043 1286.49 1043.31C1301.5 1051.37 1330.39 1035.18 1329.83 1022.17C1329.49 1014.26 1318.3 1008.28 1310.46 1004.1C1304.44 1000.89 1299.55 998.358 1294.25 999.983Z" fill="#4E1A0A" stroke="#4E1A0A" stroke-width="3" stroke-miterlimit="10"/>
<path d="M1272.95 968.6C1280.47 968.381 1284.62 977.673 1285.41 979.445C1287.88 984.964 1289.1 994.096 1284.55 997.226C1281.52 999.308 1277.26 997.841 1275.54 997.248C1267.81 994.596 1259.78 985.388 1262.44 977.134C1263.8 972.898 1268.04 968.739 1272.95 968.6Z" fill="#4E1A0A" stroke="#4E1A0A" stroke-width="3" stroke-miterlimit="10"/>
<path d="M1293.44 961.795C1290.69 965.404 1291.89 970.011 1293.73 977.053C1295.44 983.596 1297.39 991.073 1301.79 991.86C1306.88 992.767 1313.42 984.369 1314.83 976.317C1315.16 974.402 1316.94 964.286 1309.97 959.713C1304.77 956.303 1296.82 957.364 1293.44 961.795Z" fill="#4E1A0A" stroke="#4E1A0A" stroke-width="3" stroke-miterlimit="10"/>
<path d="M1321.93 996.302C1319.59 993.247 1319.96 989.626 1320.26 986.968C1320.72 983.017 1322.79 974.488 1326.91 974.051C1330.99 973.624 1336.4 981.23 1335.88 988.302C1335.51 993.428 1331.93 999.569 1327.58 999.641C1324.53 999.686 1322.27 996.74 1321.93 996.302Z" fill="#4E1A0A" stroke="#4E1A0A" stroke-width="3" stroke-miterlimit="10"/>
<path d="M1250.12 1006.59C1249.98 1011.03 1256.97 1014.2 1261.46 1015.02C1264.84 1015.64 1271.19 1015.77 1272.58 1012.78C1274.39 1008.88 1267.85 999.233 1260.07 999.318C1255.47 999.368 1250.24 1002.81 1250.12 1006.58L1250.12 1006.59Z" fill="#4E1A0A" stroke="#4E1A0A" stroke-width="3" stroke-miterlimit="10"/>
</g>
<g clip-path="url(#clip2_17_392)">
<path d="M1224.06 1062.61C1221.6 1064.79 1221.41 1068.06 1221.16 1072.47C1220.9 1076.94 1220.64 1081.35 1223.63 1084.55C1226.33 1087.45 1230.18 1087.75 1230.56 1087.78C1240.6 1088.41 1252.13 1072.6 1248.62 1065.76C1246.49 1061.59 1239.01 1061.14 1233.77 1060.83C1229.75 1060.58 1226.5 1060.43 1224.06 1062.61Z" fill="#4E1A0A" stroke="#4E1A0A" stroke-width="3" stroke-miterlimit="10"/>
<path d="M1204.89 1051C1208.88 1049.03 1213.39 1053 1214.25 1053.76C1216.94 1056.11 1219.84 1060.71 1218.17 1063.52C1217.06 1065.38 1214.41 1065.64 1213.34 1065.74C1208.53 1066.23 1201.96 1063.26 1201.35 1058.17C1201.04 1055.56 1202.29 1052.29 1204.89 1051Z" fill="#4E1A0A" stroke="#4E1A0A" stroke-width="3" stroke-miterlimit="10"/>
<path d="M1214.22 1042.3C1213.63 1044.92 1215.41 1047.1 1218.13 1050.42C1220.66 1053.52 1223.55 1057.05 1226.1 1056.39C1229.06 1055.62 1230.5 1049.5 1229.27 1044.83C1228.98 1043.72 1227.45 1037.85 1222.58 1037.12C1218.95 1036.57 1214.94 1039.09 1214.22 1042.3Z" fill="#4E1A0A" stroke="#4E1A0A" stroke-width="3" stroke-miterlimit="10"/>
<path d="M1238.01 1053.81C1236 1052.75 1235.31 1050.71 1234.82 1049.21C1234.09 1046.98 1233.1 1041.89 1235.2 1040.64C1237.29 1039.41 1242.06 1042.16 1243.53 1046.08C1244.59 1048.93 1244.18 1053.1 1241.86 1054.21C1240.24 1054.99 1238.3 1053.97 1238.01 1053.81Z" fill="#4E1A0A" stroke="#4E1A0A" stroke-width="3" stroke-miterlimit="10"/>
<path d="M1201.99 1077.02C1203.01 1079.44 1207.54 1079.42 1210.16 1078.75C1212.12 1078.26 1215.56 1076.76 1215.57 1074.81C1215.58 1072.28 1209.7 1068.7 1205.54 1070.67C1203.08 1071.83 1201.12 1074.96 1201.99 1077.02L1201.99 1077.02Z" fill="#4E1A0A" stroke="#4E1A0A" stroke-width="3" stroke-miterlimit="10"/>
</g>
<defs>
<clipPath id="clip0_17_392">
<rect width="1440" height="566" fill="white" transform="translate(0 954)"/>
</clipPath>
<clipPath id="clip1_17_392">
<rect width="84.46" height="90.56" fill="white" transform="translate(1267.47 944.585) rotate(17.1066)"/>
</clipPath>
<clipPath id="clip2_17_392">
<rect width="49.8863" height="53.4893" fill="white" transform="translate(1196.04 1039.46) rotate(-7.53397)"/>
</clipPath>
</defs>
</svg>
