<svg width="1440" height="781" viewBox="0 0 1440 781" fill="none" xmlns="http://www.w3.org/2000/svg">
<path d="M-323 607.885V-74.0001H1762V581.489C1709.93 578.85 1505.99 530.458 1412.69 509.341C1319.4 488.225 1187.1 467.521 923.805 484.705C764.291 495.117 541.388 518.868 320.81 557.582C100.233 596.295 -105.936 627.701 -323 607.885Z" fill="#F9BB72"/>
<path fill-rule="evenodd" clip-rule="evenodd" d="M230.219 175.056C250.919 175.881 268.436 188.209 283.276 202.726C298.37 217.491 312.355 234.861 312.976 256.012C313.61 277.648 301.748 297.239 286.496 312.532C271.258 327.812 251.75 338.734 230.219 338.995C208.449 339.258 187.83 329.504 172.568 313.911C157.439 298.453 148.961 277.687 149 256.012C149.039 234.377 157.486 213.564 172.777 198.323C188.01 183.139 208.773 174.202 230.219 175.056Z" fill="#EB724C"/>
<path fill-rule="evenodd" clip-rule="evenodd" d="M136.321 320.012C145.524 320.308 153.068 327.016 158.732 334.266C163.69 340.612 165.337 348.61 164.944 356.65C164.574 364.239 161.449 371.057 156.648 376.952C151.142 383.713 144.989 390.795 136.321 391.796C126.903 392.883 116.651 389.617 110.679 382.261C105.047 375.324 107.474 365.575 107.787 356.65C108.083 348.228 107.236 339.426 112.417 332.774C118.184 325.369 126.934 319.709 136.321 320.012Z" fill="#EB724C"/>
<g clip-path="url(#clip0_231_15)">
<path d="M1191.52 650.196C1190.71 650.397 1190.23 651.212 1190.43 652.015L1193.7 665.113C1193.9 665.916 1194.71 666.405 1195.52 666.204C1196.32 666.003 1196.81 665.189 1196.61 664.385L1193.7 652.743L1205.34 649.834C1206.15 649.633 1206.63 648.819 1206.43 648.015C1206.23 647.212 1205.42 646.723 1204.62 646.924L1191.52 650.196ZM1340.51 655.092L1339.44 654.048L1340.51 655.092ZM1353.5 608.5L1354.9 607.972L1354.9 607.964L1354.9 607.956L1353.5 608.5ZM1333 592.5L1332.34 591.151L1333 592.5ZM1326.5 618L1325.04 618.356L1326.5 618ZM1413.5 608.5L1414.82 609.209L1413.5 608.5ZM1191.11 652.938C1192.76 653.929 1194.41 654.891 1196.07 655.824L1197.54 653.211C1195.91 652.291 1194.28 651.342 1192.65 650.365L1191.11 652.938ZM1206.22 661.184C1209.7 662.899 1213.18 664.491 1216.65 665.959L1217.82 663.196C1214.4 661.75 1210.97 660.183 1207.54 658.493L1206.22 661.184ZM1227.36 670.105C1231.02 671.397 1234.68 672.552 1238.3 673.57L1239.12 670.682C1235.55 669.681 1231.96 668.546 1228.35 667.276L1227.36 670.105ZM1249.47 676.295C1253.29 677.087 1257.07 677.724 1260.8 678.21L1261.19 675.235C1257.53 674.759 1253.82 674.134 1250.08 673.358L1249.47 676.295ZM1272.26 679.232C1276.18 679.417 1280.03 679.427 1283.79 679.262L1283.66 676.265C1279.99 676.425 1276.23 676.416 1272.4 676.235L1272.26 679.232ZM1295.27 678.185C1299.17 677.614 1302.95 676.841 1306.6 675.865L1305.82 672.967C1302.29 673.911 1298.62 674.662 1294.84 675.217L1295.27 678.185ZM1317.56 672.164C1321.2 670.656 1324.66 668.915 1327.93 666.943L1326.38 664.375C1323.24 666.266 1319.92 667.94 1316.41 669.393L1317.56 672.164ZM1337.35 660.131C1338.82 658.861 1340.24 657.529 1341.59 656.136L1339.44 654.048C1338.15 655.375 1336.8 656.646 1335.39 657.859L1337.35 660.131ZM1341.59 656.136C1343.17 654.508 1344.59 652.871 1345.88 651.234L1343.52 649.381C1342.3 650.935 1340.94 652.493 1339.44 654.048L1341.59 656.136ZM1352.65 640.097C1354.63 635.674 1355.75 631.426 1356.33 627.552L1353.36 627.115C1352.82 630.74 1351.77 634.719 1349.92 638.872L1352.65 640.097ZM1356.39 614.474C1356.12 612.471 1355.75 610.865 1355.45 609.751C1355.3 609.194 1355.17 608.759 1355.07 608.459C1355.02 608.309 1354.98 608.192 1354.95 608.11C1354.94 608.069 1354.93 608.037 1354.92 608.014C1354.92 608.003 1354.91 607.993 1354.91 607.986C1354.91 607.983 1354.91 607.98 1354.91 607.977C1354.91 607.976 1354.91 607.975 1354.9 607.974C1354.9 607.974 1354.9 607.973 1354.9 607.973C1354.9 607.973 1354.9 607.972 1354.9 607.972C1354.9 607.972 1354.9 607.972 1353.5 608.5C1352.1 609.028 1352.1 609.028 1352.1 609.028C1352.1 609.028 1352.1 609.027 1352.1 609.027C1352.1 609.027 1352.1 609.027 1352.1 609.027C1352.1 609.026 1352.1 609.026 1352.1 609.026C1352.1 609.026 1352.1 609.026 1352.1 609.027C1352.1 609.029 1352.1 609.033 1352.1 609.04C1352.1 609.052 1352.11 609.074 1352.12 609.104C1352.14 609.163 1352.18 609.258 1352.22 609.385C1352.3 609.639 1352.42 610.024 1352.55 610.528C1352.82 611.537 1353.16 613.021 1353.42 614.887L1356.39 614.474ZM1353.5 608.5C1354.9 607.956 1354.9 607.956 1354.9 607.956C1354.9 607.956 1354.9 607.955 1354.9 607.955C1354.9 607.955 1354.9 607.955 1354.9 607.954C1354.9 607.953 1354.9 607.953 1354.9 607.951C1354.9 607.949 1354.89 607.946 1354.89 607.943C1354.89 607.935 1354.89 607.925 1354.88 607.912C1354.87 607.886 1354.86 607.849 1354.84 607.801C1354.8 607.705 1354.74 607.567 1354.67 607.392C1354.52 607.041 1354.3 606.54 1354.01 605.929C1353.45 604.708 1352.61 603.038 1351.53 601.242L1348.96 602.782C1349.97 604.469 1350.76 606.043 1351.29 607.196C1351.56 607.771 1351.77 608.239 1351.9 608.561C1351.97 608.721 1352.02 608.845 1352.06 608.927C1352.07 608.969 1352.08 608.999 1352.09 609.019C1352.1 609.029 1352.1 609.036 1352.1 609.04C1352.1 609.042 1352.1 609.044 1352.1 609.044C1352.1 609.045 1352.1 609.045 1352.1 609.045C1352.1 609.045 1352.1 609.045 1352.1 609.045C1352.1 609.045 1352.1 609.044 1352.1 609.044C1352.1 609.044 1352.1 609.044 1353.5 608.5ZM1340.55 590.609C1338.02 589.724 1335.24 589.741 1332.34 591.151L1333.66 593.849C1335.8 592.803 1337.76 592.81 1339.56 593.441L1340.55 590.609ZM1332.34 591.151C1329.76 592.407 1327.61 593.891 1326.03 595.913L1328.4 597.757C1329.59 596.229 1331.31 594.993 1333.66 593.849L1332.34 591.151ZM1323.58 611.062C1323.9 613.245 1324.38 615.665 1325.04 618.356L1327.96 617.644C1327.32 615.02 1326.85 612.699 1326.55 610.635L1323.58 611.062ZM1325.04 618.356C1325.51 620.282 1326.1 622.078 1326.79 623.748L1329.56 622.6C1328.93 621.079 1328.39 619.43 1327.96 617.644L1325.04 618.356ZM1333.04 633.205C1335.81 635.938 1339.07 637.93 1342.65 639.279L1343.71 636.472C1340.49 635.257 1337.6 633.481 1335.15 631.07L1333.04 633.205ZM1353.68 641.474C1357.28 641.662 1361.02 641.42 1364.79 640.819L1364.32 637.857C1360.72 638.429 1357.2 638.653 1353.84 638.478L1353.68 641.474ZM1375.53 638.206C1379.01 637.08 1382.44 635.699 1385.77 634.11L1384.47 631.404C1381.26 632.937 1377.95 634.269 1374.61 635.353L1375.53 638.206ZM1395.38 628.73C1398.55 626.674 1401.52 624.438 1404.19 622.073L1402.21 619.826C1399.65 622.084 1396.81 624.231 1393.75 626.213L1395.38 628.73ZM1411.78 613.944C1412.94 612.393 1413.96 610.811 1414.82 609.209L1412.18 607.791C1411.4 609.248 1410.46 610.705 1409.38 612.15L1411.78 613.944ZM1414.82 609.209C1415.67 607.63 1416.51 606.022 1417.32 604.386L1414.64 603.043C1413.84 604.652 1413.01 606.234 1412.18 607.791L1414.82 609.209ZM1421.86 594.481C1423.23 591.152 1424.48 587.724 1425.56 584.202L1422.69 583.325C1421.64 586.747 1420.42 590.086 1419.08 593.338L1421.86 594.481ZM1428.17 573.567C1428.82 570.014 1429.27 566.379 1429.45 562.665L1426.46 562.515C1426.28 566.088 1425.85 569.592 1425.22 573.024L1428.17 573.567ZM1429.23 551.681C1428.9 548.126 1428.31 544.511 1427.43 540.84L1424.51 541.541C1425.36 545.07 1425.92 548.543 1426.24 551.958L1429.23 551.681ZM1424.14 530.367C1422.86 527.086 1421.34 523.768 1419.55 520.416L1416.9 521.831C1418.64 525.081 1420.11 528.289 1421.34 531.454L1424.14 530.367ZM1413.88 511.061C1412.87 509.581 1411.82 508.095 1410.7 506.602L1408.3 508.398C1409.39 509.854 1410.42 511.302 1411.39 512.744L1413.88 511.061Z" fill="#4E1A0A"/>
</g>
<defs>
<clipPath id="clip0_231_15">
<rect width="259.035" height="289.533" fill="white" transform="translate(1121.14 642.941) rotate(-61.7108)"/>
</clipPath>
</defs>
</svg>
