<svg width="433" height="183" viewBox="0 0 433 183" fill="none" xmlns="http://www.w3.org/2000/svg">
<g clip-path="url(#clip0_14_70)">
<path fill-rule="evenodd" clip-rule="evenodd" d="M308.433 19.4318C336.298 18.5173 365.292 18.8734 387.15 34.5308C411.352 51.8675 427.09 77.8444 428.889 105.718C430.789 135.151 423.303 168.426 396.911 185.733C372.088 202.011 338.816 188.442 308.433 184.711C284.315 181.749 259.693 180.816 241.11 166.602C220.917 151.157 206.267 129.614 205.162 105.718C204.015 80.9401 215.087 56.3464 235.229 39.5169C254.699 23.2487 281.942 20.3013 308.433 19.4318Z" fill="#EB724C"/>
<path d="M104.511 55.0798C104.131 56.5475 103.591 58.6958 102.96 61.3121C101.89 65.7682 99.1989 74.8294 99.299 78.1582C99.7792 92.6646 111.434 102.981 112.704 104.076C130.601 119.476 164.004 116.222 173.248 98.4608C176.719 91.7819 176.089 84.3798 175.279 79.8918C176.179 80.5299 181.201 83.9757 185.843 82.0507C192.205 79.4132 193.726 68.3845 190.315 61.7481C189.875 60.8973 186.443 54.4417 181.371 55.2713C178.45 55.7499 175.959 58.4937 174.869 62.1842" stroke="#4E1A0A" stroke-width="3" stroke-miterlimit="10" stroke-linejoin="bevel"/>
<path d="M106.622 21.1428C99.7793 33.1287 101.26 46.1356 102.15 51.3787C108.613 47.5394 117.496 43.1577 128.561 40.1479C142.156 36.4469 153.981 36.181 162.284 36.6915C156.802 44.402 155.841 54.2821 159.843 61.7481C163.334 68.2462 169.347 70.6072 171.217 71.2559C168.126 66.1298 168.336 59.6529 171.627 55.2712C175.659 49.9004 182.612 49.943 187.064 51.8148C192.466 54.0801 194.697 59.2381 195.187 60.4506C197.178 55.2925 199.558 46.7524 197.628 37.1276C193.356 15.804 171.047 4.54128 154.961 2.13773C152.45 1.76549 120.127 -2.54177 106.612 21.1428H106.622Z" stroke="#4E1A0A" stroke-width="3" stroke-miterlimit="10" stroke-linejoin="bevel"/>
<path d="M133.432 62.6096C134.963 58.7703 138.625 56.8985 141.556 57.8556C144.507 58.8234 145.527 62.2799 145.617 62.6096" stroke="#4E1A0A" stroke-width="3" stroke-miterlimit="10" stroke-linejoin="bevel"/>
<path d="M110.683 89.6442C113.525 90.8141 125.259 95.2596 136.684 89.2082C140.025 87.4427 142.556 85.1987 144.407 83.1567L148.468 87.0492" stroke="#4E1A0A" stroke-width="3" stroke-miterlimit="10" stroke-linejoin="bevel"/>
<path d="M431.259 177.076C405.069 172.344 373.557 168.696 337.873 168.717C302.479 168.738 271.207 172.365 245.176 177.076C242.885 157.529 238.454 133.472 229.8 106.958C222.367 84.1989 213.594 65.0449 205.361 49.6558C227.589 43.3278 257.711 37.2445 293.595 36.9786C331.71 36.7021 363.553 43.0939 386.572 49.6558C395.725 64.3111 406.03 83.5927 414.673 107.394C424.377 134.121 428.999 158.284 431.269 177.087L431.259 177.076Z" stroke="#4E1A0A" stroke-width="3" stroke-miterlimit="10" stroke-linejoin="bevel"/>
<path d="M176.739 118.508C172.448 124.538 163.264 135.663 148.088 142.161C144.687 143.618 110.724 157.826 88.4948 136.014C77.6306 125.347 74.2392 111.149 73.0588 104.459C69.8075 104.587 68.0768 106.012 67.3565 106.735C63.6151 110.468 63.2649 118.912 67.5566 126.942C66.1561 126.251 56.7524 121.762 48.169 127.293C46.2983 128.495 41.3863 131.664 40.2659 138.034C38.8053 146.309 45.0878 152.498 45.3979 152.796C49.7396 151.754 56.0321 151.009 62.7247 153.466C67.6667 155.285 70.8479 158.114 72.0784 159.166C81.9623 167.621 96.3779 172.748 108.173 176.949C124.699 182.83 148.318 183.776 170.787 174.311C201.129 161.527 215.495 135.546 219.516 127.601" stroke="#4E1A0A" stroke-width="3" stroke-miterlimit="10" stroke-linejoin="bevel"/>
<path d="M41.2662 108.681C48.9893 97.142 62.4345 81.5508 82.7125 75.8503C84.6333 75.3079 86.534 74.8825 88.4047 74.5528C89.5052 69.6181 89.8553 64.0984 86.9942 60.7377C82.2723 55.1968 71.5881 58.7702 70.8178 55.8455C70.3276 54.0162 74.0691 50.8789 77.6305 49.5069C87.2243 45.8165 97.1782 54.3247 98.5687 55.5371" stroke="#4E1A0A" stroke-width="3" stroke-miterlimit="10" stroke-linejoin="bevel"/>
<path d="M97.3382 90.9736C94.8372 91.7925 91.2758 93.3027 87.5844 96.153C82.9226 99.7583 80.1415 103.885 78.6409 106.522" stroke="#4E1A0A" stroke-width="3" stroke-miterlimit="10" stroke-linejoin="bevel"/>
<path d="M198.508 164.835C209.882 164.548 221.257 164.261 232.641 163.974" stroke="#4E1A0A" stroke-width="3" stroke-miterlimit="10" stroke-linejoin="bevel"/>
<path d="M59.0632 113.786H2.1709C8.07322 130.324 13.9855 146.851 19.8879 163.389H68.2669" stroke="#4E1A0A" stroke-width="3" stroke-miterlimit="10" stroke-linejoin="bevel"/>
<path d="M78.791 113.063H92.4164C95.9377 121.869 99.4491 130.686 102.971 139.491" stroke="#4E1A0A" stroke-width="3" stroke-miterlimit="10" stroke-linejoin="bevel"/>
<path d="M29.0414 98.2054C20.9882 81.2955 15.6461 68.7246 15.266 66.1935C15.0459 64.6833 15.6061 62.9923 15.6061 62.9923C15.9162 62.0564 16.2463 61.0673 17.0066 60.2697C17.1067 60.1633 17.4468 59.8336 17.987 59.5146C19.3676 58.6956 21.5684 58.2702 23.1591 58.9828C24.7997 59.7166 25.7201 61.6203 26.3603 64.1196C28.5812 72.8086 28.9913 95.2488 29.0414 98.2054V98.2054Z" stroke="#4E1A0A" stroke-width="3" stroke-miterlimit="10" stroke-linejoin="bevel"/>
</g>
<defs>
<clipPath id="clip0_14_70">
<rect width="433" height="183" fill="white"/>
</clipPath>
</defs>
</svg>
