<svg width="422" height="213" viewBox="0 0 422 213" fill="none" xmlns="http://www.w3.org/2000/svg">
<g clip-path="url(#clip0_14_53)">
<path fill-rule="evenodd" clip-rule="evenodd" d="M321.502 102.341C324.455 133.107 349.79 169.602 318.586 191.305C287.387 213.005 235.65 190.199 191.855 192.514C140.515 195.228 86.295 226.887 44.4859 205.794C2.08797 184.404 2.25732 138.191 13.1166 102.34C22.2483 72.1929 62.0906 54.6019 96.1689 35.1684C125.146 18.644 154.621 2.31751 191.855 0.412906C231.935 -1.63722 275.818 3.56735 302.583 24.6099C328.508 44.9927 318.884 75.0766 321.502 102.341Z" fill="#F9BB72"/>
<path d="M239.44 95.11C249.47 131.85 235.42 164.32 213.48 172.64C199.1 178.09 184.23 172.08 177.74 168.9C177.09 172.46 176.9 177 178.76 181.5C185.23 197.13 212.01 201.55 231.19 197.16C237.45 195.73 254.5 191.82 263.87 175.71C272.32 161.18 271.34 142.2 261.49 126.35" stroke="#4E1A0A" stroke-width="3" stroke-miterlimit="10" stroke-linejoin="bevel"/>
<path d="M288.71 99.79C295.69 101.06 317.47 104.09 336.03 90.94C340.25 87.95 343.6 84.62 346.24 81.41C347.59 83.4 349.32 86.52 349.98 90.6C352.09 103.5 341.59 113.66 340.45 114.77C329.92 124.97 310.38 125.86 292.11 116.47C291.29 118.53 288.46 126.3 291.77 134.85C295.05 143.32 303.61 151.33 313.56 150.85C318.56 150.61 322.37 148.31 324.45 146.76" stroke="#4E1A0A" stroke-width="3" stroke-miterlimit="10" stroke-linejoin="bevel"/>
<path d="M276.48 180.31C289.65 180.61 302.93 180.81 316.31 180.93C319.83 180.96 323.35 180.99 326.86 181C327.62 179.58 329.93 175.76 334.4 174.24C341.07 171.98 347.77 176.48 351.04 180.49C355.36 185.79 355.16 192 355.03 193.8C325.3 194.04 295.56 194.29 265.83 194.53" stroke="#4E1A0A" stroke-width="3" stroke-miterlimit="10" stroke-linejoin="bevel"/>
<path d="M345.62 80.4101C344.19 78.4101 341.98 77.4401 339.91 77.9701C336.98 78.7201 334.74 82.2301 335.24 85.5101C335.67 88.3101 337.89 89.6901 338.24 89.9001" stroke="#4E1A0A" stroke-width="3" stroke-miterlimit="10" stroke-linejoin="bevel"/>
<path d="M265.82 104.27C265.71 100.89 268.26 98.16 271.18 98.01C273.55 97.89 275.88 99.48 276.8 101.97" stroke="#4E1A0A" stroke-width="3" stroke-miterlimit="10" stroke-linejoin="bevel"/>
<path d="M305.22 95.36C304.89 95.3 301.46 94.58 299.94 91.27C298.84 88.87 299.17 86.02 300.79 83.86C294.33 80.57 284.97 76.83 273.25 75.3C249.92 72.27 231.49 79.89 223.43 83.86C218.25 93.78 212.35 107.4 208.37 124.29C204.54 140.56 203.65 154.88 203.77 165.82" stroke="#4E1A0A" stroke-width="3" stroke-miterlimit="10" stroke-linejoin="bevel"/>
<path d="M275.18 167.11C277.46 167.05 283.79 166.6 289.73 162C294.05 158.66 296.19 154.68 297.13 152.55" stroke="#4E1A0A" stroke-width="3" stroke-miterlimit="10" stroke-linejoin="bevel"/>
<path d="M354.08 176.55C354.73 175.83 358.38 171.96 364.04 171.95C369.34 171.95 372.76 175.32 374.25 176.8C378.82 181.32 379.48 186.99 379.61 188.8H360.72" stroke="#4E1A0A" stroke-width="3" stroke-miterlimit="10" stroke-linejoin="bevel"/>
<path d="M172.29 98.42C177.07 86.43 187.79 64.84 210.42 49.4C247.69 23.97 307.33 22.01 323.44 48.72C326.35 53.55 331.19 64.85 324.12 86.51" stroke="#4E1A0A" stroke-width="3" stroke-miterlimit="10" stroke-linejoin="bevel"/>
<path d="M167.44 83.62C148.02 79.67 123.3 76.49 94.67 77.24C73.34 77.8 54.48 80.41 38.71 83.62C31.19 96.5 23.15 112.54 16.29 131.62C8.15999 154.2 3.95999 174.72 1.73999 191.36C25.77 189.16 51.72 187.71 79.37 187.47C113.27 187.17 144.73 188.74 173.37 191.36" stroke="#4E1A0A" stroke-width="3" stroke-miterlimit="10" stroke-linejoin="bevel"/>
<path d="M228.63 113.74C224.99 115.02 218.97 117.85 215.52 123.95C213.89 126.83 211.98 131.97 213.65 133.31C215.08 134.46 218.93 132.67 223.18 129.05C219.6 133.7 218.8 137.89 218.58 140.11C218.42 141.78 218.21 143.94 219.09 144.37C220.66 145.12 224.72 139.92 227.94 135.35" stroke="#4E1A0A" stroke-width="3" stroke-miterlimit="10" stroke-linejoin="bevel"/>
<path d="M364.29 105.06C372.93 104.48 379.51 101.1 380.63 96.3801C380.82 95.5601 380.89 94.5401 380.63 93.3201" stroke="#4E1A0A" stroke-width="3" stroke-miterlimit="10" stroke-linejoin="bevel"/>
<path d="M370.16 113.49C371.99 113.95 375.6 114.6 379.86 113.49C382.59 112.78 384.65 111.6 385.99 110.68" stroke="#4E1A0A" stroke-width="3" stroke-miterlimit="10" stroke-linejoin="bevel"/>
<path d="M364.8 121.15C366.38 122.43 369.12 124.31 372.97 125.49C376.56 126.59 379.68 126.64 381.65 126.51" stroke="#4E1A0A" stroke-width="3" stroke-miterlimit="10" stroke-linejoin="bevel"/>
<path d="M335.69 128.38C338.15 134.79 343.81 146.76 356.12 156.64C361.98 161.34 378.01 172.52 399.69 170.94C409.21 170.24 416.64 167.32 421.14 165.15" stroke="#4E1A0A" stroke-width="3" stroke-miterlimit="10" stroke-linejoin="bevel"/>
</g>
<defs>
<clipPath id="clip0_14_53">
<rect width="422" height="213" fill="white"/>
</clipPath>
</defs>
</svg>
