<svg width="306" height="291" viewBox="0 0 306 291" fill="none" xmlns="http://www.w3.org/2000/svg">
<g clip-path="url(#clip0_14_84)">
<path fill-rule="evenodd" clip-rule="evenodd" d="M3.54217 221.934C5.00227 201.138 10.4612 179.666 30.0691 165.483C49.1434 151.686 76.9672 146.837 102.64 150.256C125.041 153.238 137.306 169.987 153.998 181.984C171.954 194.889 197.481 203.301 202.368 221.934C207.962 243.262 204.143 270.936 180.327 282.365C156.925 293.595 130.131 269.349 102.64 269.79C73.7963 270.252 46.1951 296.744 21.6844 284.907C-2.74036 273.112 1.97442 244.264 3.54217 221.934Z" fill="#EB724C"/>
<path d="M100.632 56.3545C85.1308 76.0073 79.5218 97.2281 89.1068 110.096C94.8324 117.784 105.032 120.217 125.422 125.082C155.619 132.286 171.311 136.03 184.226 128.18C205.527 115.227 200.671 82.0134 200.363 80.1222C200.48 81.4146 201.689 93.4173 207.276 94.5862C212.663 95.7171 220.403 86.4229 221.686 77.5373C222.502 71.9209 221.315 62.4271 215.345 61.0016C210.044 59.7377 204.318 65.6392 203.82 66.1714" stroke="#4E1A0A" stroke-width="3" stroke-miterlimit="10" stroke-linejoin="bevel"/>
<path d="M109.274 100.972C111.193 98.8437 113.112 96.7244 115.042 94.5957C116.674 96.3918 123.757 103.747 136.184 105.448C147.656 107.016 156.287 102.759 158.673 101.486L162.903 108.204" stroke="#4E1A0A" stroke-width="3" stroke-miterlimit="10" stroke-linejoin="bevel"/>
<path d="M89.8172 61.0111C76.7862 58.7779 68.7916 46.9748 72.0892 36.2076C75.4397 25.2883 89.3719 18.8071 101.926 23.1596C102.573 20.7172 103.898 17.0584 106.824 13.3427C108.086 11.7461 117.045 0.750813 130.744 1.45406C141.634 2.01475 151.547 9.75993 154.813 20.6982C152.809 15.3764 154.601 9.84545 158.704 7.39361C164.886 3.70633 175.16 7.68821 176.867 14.236C177.864 18.0658 175.839 22.3993 171.82 25.3453C173.029 23.7298 183.695 9.91198 201.508 9.71241C204.244 9.6839 213.299 9.70291 220.965 15.5284C229.139 21.7341 234.717 33.7557 229.182 43.6866C224.919 51.3463 216.14 54.0167 213.765 54.6629C216.151 53.9217 221.325 52.6672 227.072 54.2733C236.816 57.0007 240.506 65.7913 241.672 68.5662C245.447 77.5468 243.909 88.6562 236.678 96.81C231.016 103.187 221.463 108.233 211.507 107.663C209.28 107.539 207.446 107.15 206.131 106.798" stroke="#4E1A0A" stroke-width="3" stroke-miterlimit="10" stroke-linejoin="bevel"/>
<path d="M100.346 51.7075C106.846 42.5843 118.138 37.9942 128.306 40.085C137.159 41.9001 142.015 48.1342 143.298 49.9018C146.755 48.1342 152.586 45.6064 160.305 44.4755C167.049 43.4871 178.394 41.8336 187.406 48.0962C193.588 52.3917 195.963 58.5213 196.917 62.3036" stroke="#4E1A0A" stroke-width="3" stroke-miterlimit="10" stroke-linejoin="bevel"/>
<path d="M111.023 71.7498C111.076 72.8806 111.405 75.2755 113.759 77.2236C118.625 81.253 129.536 81.234 132.738 77.8128C133.904 76.5774 133.894 75.0474 133.628 73.8405C134.604 73.4698 137.18 72.6241 140.573 72.8806C144.39 73.1657 146.819 74.6768 147.582 75.1899C146.712 75.8077 145.037 77.2046 145.249 78.8392C145.578 81.3766 150.211 82.688 153.254 83.5528C156.785 84.5507 163.423 86.4228 167.187 83.8664C169.668 82.1844 169.615 79.4569 169.488 78.3165" stroke="#4E1A0A" stroke-width="3" stroke-miterlimit="10" stroke-linejoin="bevel"/>
<path d="M18.7672 277.515H1.66467C2.24783 265.674 4.73952 247.361 14.3458 226.882C23.2946 207.799 35.0002 194.095 43.5568 185.542H64.8898" stroke="#4E1A0A" stroke-width="3" stroke-miterlimit="10" stroke-linejoin="bevel"/>
<path d="M66.9043 274.673C65.5896 273.105 61.2742 268.411 53.6401 266.662C41.7542 263.944 32.6251 270.853 32.042 271.309C22.9765 278.408 23.8671 288.567 23.9731 289.565H87.8027" stroke="#4E1A0A" stroke-width="3" stroke-miterlimit="10" stroke-linejoin="bevel"/>
<path d="M97.7483 288.881C97.6422 287.674 96.9 277.344 105.817 270.283C113.504 264.201 124.086 263.916 131.953 266.843C141.464 270.378 147.805 278.912 148.091 288.548C131.306 288.662 114.522 288.776 97.7377 288.89L97.7483 288.881Z" stroke="#4E1A0A" stroke-width="3" stroke-miterlimit="10" stroke-linejoin="bevel"/>
<path d="M153.668 277.857H173.103C176.051 258.993 179.889 243.569 183.07 232.384C187.046 218.386 193.673 195.112 199.6 195.521C201.54 195.654 202.929 198.305 203.83 200.69" stroke="#4E1A0A" stroke-width="3" stroke-miterlimit="10" stroke-linejoin="bevel"/>
<path d="M99.2856 125.947C95.5746 127.078 75.6093 133.531 66.6181 152.129C61.921 161.841 62.1966 170.755 62.7798 175.554" stroke="#4E1A0A" stroke-width="3" stroke-miterlimit="10" stroke-linejoin="bevel"/>
<path d="M73.8175 187.861C75.9593 180.591 87.983 176.286 96.5925 180.372C103.728 183.756 107.174 192.28 103.686 200.006H78.2389C77.5709 199.35 72.068 193.791 73.8175 187.861Z" stroke="#4E1A0A" stroke-width="3" stroke-miterlimit="10" stroke-linejoin="bevel"/>
<path d="M176.92 149.021C178.638 162.392 175.022 167.647 171.735 170.033C161.928 177.141 146.469 164.929 130.49 173.235C121.159 178.082 117.332 186.977 117.067 187.604C114.957 192.717 115.042 197.307 115.338 200.006H142.206C141.984 199.455 139.905 194.095 143.595 189.153C146.808 184.848 151.982 184.098 152.82 183.984" stroke="#4E1A0A" stroke-width="3" stroke-miterlimit="10" stroke-linejoin="bevel"/>
<path d="M154.665 187.861H204.392C206.417 189.552 208.899 192.004 211.019 195.349C215.144 201.85 215.642 208.103 215.631 211.372" stroke="#4E1A0A" stroke-width="3" stroke-miterlimit="10" stroke-linejoin="bevel"/>
<path d="M194.214 129.045C218.558 137.161 230.433 154.951 226.309 167.191C223.732 174.851 215.271 179.184 210.457 181.142" stroke="#4E1A0A" stroke-width="3" stroke-miterlimit="10" stroke-linejoin="bevel"/>
<path d="M191.414 237.554H202.282C202.781 242.343 204.71 253.576 214.2 264.077C220.116 270.625 226.743 274.417 231.112 276.479L251.098 276.821C246.168 274.379 231.355 266.273 223.806 249.604C221.961 245.527 216.787 232.612 220.678 218.794C227.825 193.43 257.068 195.198 282.228 165.889C285.335 162.269 315.638 126.109 299.903 101.818C288.569 84.3133 259.623 82.6692 253.516 82.4316" stroke="#4E1A0A" stroke-width="3" stroke-miterlimit="10" stroke-linejoin="bevel"/>
<path d="M98.3208 175.459C99.222 173.948 102.127 168.626 100.622 161.765C99.275 155.626 95.1823 151.891 93.7085 150.656" stroke="#4E1A0A" stroke-width="3" stroke-miterlimit="10" stroke-linejoin="bevel"/>
<path d="M27.2919 37.5475C31.6285 34.744 35.9544 31.9406 40.291 29.1371C38.849 35.0671 37.407 40.9972 35.9544 46.9272C40.7682 44.77 45.5819 42.6127 50.3956 40.4555" stroke="#4E1A0A" stroke-width="3" stroke-miterlimit="10" stroke-linejoin="bevel"/>
<path d="M40.2805 5.52136L52.1876 6.16759L40.2805 14.578C44.0127 15.4428 47.745 16.3076 51.4666 17.1629" stroke="#4E1A0A" stroke-width="3" stroke-miterlimit="10" stroke-linejoin="bevel"/>
</g>
<defs>
<clipPath id="clip0_14_84">
<rect width="306" height="291" fill="white"/>
</clipPath>
</defs>
</svg>
