<svg width="570" height="604" viewBox="0 0 570 604" fill="none" xmlns="http://www.w3.org/2000/svg">
<g clip-path="url(#clip0_218_64)">
<path d="M59.3616 114.749C59.3616 114.749 62.5701 93.6968 73.8627 85.3134C76.0309 83.7094 77.4096 83.5715 78.1741 83.6091C83.012 83.7971 83.8266 91.0903 89.5418 93.4211C94.1541 95.3008 99.1047 92.7946 102.088 91.2908C108.968 87.8071 109.595 83.2332 113.455 82.3309C116.927 81.5289 122.479 83.8221 131.478 98.1204C136.441 97.8196 143.849 97.7946 152.647 99.3986C170.281 102.607 182.927 110.464 191.049 115.614C206.139 125.176 202.367 126.617 211.428 130.978C233.336 141.516 251.109 131.003 258.065 142.494C259.932 145.577 260.709 149.749 259.631 153.158C256.185 164.06 234.327 165.664 220.828 163.396C204.472 160.639 192.816 150.89 186.337 144.198C187.101 148.634 188.793 155.05 193.004 161.266C197.04 167.231 201.201 169.737 200.449 172.782C199.71 175.802 194.546 177.757 190.259 177.043C188.68 176.78 184.807 175.765 175.758 162.544C172.249 157.419 169.655 152.92 167.925 149.749C167.148 152.782 166.208 157.569 166.358 163.396C166.697 175.927 171.785 182.381 168.715 186.429C166.584 189.248 161.671 189.361 158.525 187.707C154.101 185.376 153.023 179.424 151.469 170.213C150.629 165.213 149.852 158.07 150.291 149.311C148.737 151.404 146.092 154.386 142.056 156.567C133.27 161.316 124.66 158.609 122.467 157.845C119.86 160.614 116.501 164.687 113.455 170.213C107.916 180.276 108.028 186.742 102.088 190.689C98.829 192.857 93.8157 194.211 91.5095 191.967C88.2383 188.785 91.5847 179.524 93.8658 173.196C96.9239 164.699 100.91 158.308 104.055 153.998C103.704 154.624 98.5909 163.246 89.1658 163.384C81.8088 163.496 77.0712 158.346 76.2314 157.406C75.8178 166.93 73.9504 174.248 72.3085 179.16C68.9997 189.085 66.4555 189.724 65.6408 189.825C62.5952 190.201 59.863 185.915 59.3742 185.138C54.1478 176.93 58.547 167.519 60.1638 152.293C62.2317 132.719 56.5792 133.158 59.3742 114.749H59.3616Z" fill="white" stroke="#4E1A0A" stroke-width="3" stroke-miterlimit="10" stroke-linejoin="bevel"/>
<path d="M74.9656 115.05C79.1768 114.937 83.388 114.837 87.6117 114.724" stroke="#4E1A0A" stroke-width="3" stroke-miterlimit="10" stroke-linejoin="bevel"/>
<path d="M103.604 113.609C107.865 113.396 112.139 113.183 116.401 112.97" stroke="#4E1A0A" stroke-width="3" stroke-miterlimit="10" stroke-linejoin="bevel"/>
<path d="M88.0879 131.529C90.0055 128.972 91.9231 126.404 93.8532 123.847C95.7708 126.303 97.6884 128.747 99.6185 131.203" stroke="#4E1A0A" stroke-width="3" stroke-miterlimit="10" stroke-linejoin="bevel"/>
<path d="M116.476 0.726817C117.516 13.7218 118.544 26.7043 119.584 39.6992C110.999 38.8596 102.426 38.0201 93.8407 37.1679C109.821 50.5138 125.788 63.8722 141.768 77.218C157.886 63.2707 174.016 49.3108 190.134 35.3634C181.11 36.5664 172.086 37.7694 163.062 38.9724C163.952 25.9774 164.842 12.995 165.719 0C149.301 0.238095 132.882 0.47619 116.463 0.726817H116.476Z" fill="#14A4F5"/>
</g>
<g clip-path="url(#clip1_218_64)">
<path d="M367.66 253.412C367.66 253.412 370.864 232.382 382.14 224.007C384.305 222.405 385.682 222.267 386.446 222.305C391.277 222.493 392.09 229.778 397.797 232.106C402.403 233.984 407.347 231.481 410.325 229.978C417.196 226.498 417.822 221.929 421.677 221.028C425.144 220.227 430.688 222.518 439.675 236.801C444.631 236.5 452.027 236.475 460.813 238.078C478.423 241.282 491.051 249.131 499.161 254.276C514.23 263.827 510.463 265.267 519.512 269.623C541.389 280.151 559.136 269.648 566.083 281.127C567.947 284.206 568.723 288.375 567.647 291.78C564.205 302.671 542.378 304.273 528.899 302.007C512.566 299.253 500.926 289.514 494.456 282.829C495.219 287.261 496.909 293.67 501.114 299.879C505.144 305.838 509.299 308.341 508.548 311.383C507.81 314.4 502.653 316.353 498.373 315.639C496.796 315.376 492.929 314.362 483.892 301.156C480.388 296.036 477.797 291.542 476.07 288.375C475.294 291.404 474.355 296.186 474.506 302.007C474.844 314.525 479.925 320.972 476.859 325.015C474.731 327.832 469.825 327.944 466.683 326.292C462.265 323.964 461.189 318.018 459.637 308.817C458.798 303.822 458.022 296.687 458.461 287.937C456.909 290.027 454.268 293.007 450.238 295.185C441.464 299.929 432.866 297.225 430.676 296.462C428.073 299.228 424.718 303.296 421.677 308.817C416.145 318.869 416.258 325.328 410.325 329.271C407.071 331.437 402.065 332.789 399.762 330.548C396.496 327.369 399.837 318.118 402.115 311.796C405.169 303.309 409.149 296.925 412.29 292.619C411.94 293.244 406.834 301.857 397.422 301.995C390.075 302.107 385.344 296.962 384.506 296.023C384.093 305.537 382.228 312.848 380.588 317.755C377.284 327.669 374.743 328.307 373.93 328.408C370.889 328.783 368.16 324.502 367.672 323.726C362.453 315.527 366.846 306.126 368.461 290.916C370.526 271.363 364.881 271.801 367.672 253.412H367.66Z" fill="white" stroke="#4E1A0A" stroke-width="3" stroke-miterlimit="10" stroke-linejoin="bevel"/>
<path d="M383.242 253.7C384.418 253.124 386.446 252.323 389.074 252.185C392.178 252.01 394.606 252.849 395.87 253.387" stroke="#4E1A0A" stroke-width="3" stroke-miterlimit="10" stroke-linejoin="bevel"/>
<path d="M410.588 253.512C412.278 253.037 414.468 252.598 417.059 252.473C419.549 252.361 421.69 252.586 423.367 252.874" stroke="#4E1A0A" stroke-width="3" stroke-miterlimit="10" stroke-linejoin="bevel"/>
<path d="M394.343 267.995C397.171 267.908 398.798 267.057 399.775 266.243C400.426 265.705 401.051 264.966 402.015 264.966C402.941 264.966 403.517 265.667 404.255 266.243C405.169 266.956 406.671 267.733 409.211 267.845" stroke="#4E1A0A" stroke-width="3" stroke-miterlimit="10" stroke-linejoin="bevel"/>
<path d="M286.496 339.912C269.524 335.28 261.489 315.965 261.89 314.35C262.365 312.472 263.492 311.158 263.492 311.158C266.658 306.726 272.115 305.75 273.717 305.399C287.534 302.445 316.971 282.053 325.482 272.477C326.07 271.826 327.484 270.161 329.312 270.236C331.877 270.349 333.817 273.817 337.935 283.656C341.402 291.918 343.129 296.049 343.367 297.4C346.408 314.575 312.966 347.122 286.483 339.912H286.496Z" fill="#EFBB72" stroke="#4E1A0A" stroke-width="3" stroke-miterlimit="10" stroke-linejoin="bevel"/>
<path d="M328.673 309.555C316.646 316.002 303.091 323.438 291.602 337.683C289.6 340.174 288.085 342.328 287.134 343.755C286.696 346.408 286.37 350.69 287.772 355.584C288.386 357.737 289.212 359.565 290.013 361.017C308.023 373.109 310.463 374.436 310.463 374.436C317.522 378.304 328.661 382.435 345.62 382.11C353.279 378.893 362.015 374.561 371.189 368.69C384.518 360.153 394.718 350.952 402.19 343.116C403.392 339.123 404.693 332.977 404.105 325.541C403.83 322.098 403.242 319.557 403.141 319.144C400.926 310.181 377.422 302.983 346.258 301.243C338.886 304.285 332.941 307.277 328.686 309.555H328.673Z" fill="#EFBB72" stroke="#4E1A0A" stroke-width="3" stroke-miterlimit="10" stroke-linejoin="bevel"/>
<path d="M292.253 344.706C307.835 348.599 323.667 354.445 339.224 362.92C340.188 363.446 341.151 363.984 342.103 364.522" stroke="#4E1A0A" stroke-width="3" stroke-miterlimit="10" stroke-linejoin="bevel"/>
<path d="M344.33 377.628V367.727" stroke="#4E1A0A" stroke-width="3" stroke-miterlimit="10" stroke-linejoin="bevel"/>
<path d="M345.62 360.691C352.941 352.692 361.715 344.067 372.14 335.443C379.887 329.021 387.434 323.525 394.506 318.819" stroke="#4E1A0A" stroke-width="3" stroke-miterlimit="10" stroke-linejoin="bevel"/>
<path d="M347.534 307.315C347.86 311.683 348.173 316.052 348.498 320.421C339.825 325.866 330.951 331.812 321.978 338.322C319.036 340.45 316.158 342.578 313.354 344.719" stroke="#4E1A0A" stroke-width="3" stroke-miterlimit="10" stroke-linejoin="bevel"/>
<path d="M353.917 321.698C356.583 322.436 359.237 323.187 361.902 323.938C366.07 325.103 370.225 326.279 374.368 327.456" stroke="#4E1A0A" stroke-width="3" stroke-miterlimit="10" stroke-linejoin="bevel"/>
</g>
<path d="M104.745 476.529C104.745 476.529 107.862 456.001 118.833 447.826C120.94 446.262 122.279 446.127 123.022 446.164C127.722 446.347 128.514 453.459 134.067 455.732C138.548 457.565 143.357 455.121 146.256 453.654C152.941 450.258 153.549 445.798 157.3 444.918C160.673 444.136 166.067 446.372 174.81 460.314C179.632 460.021 186.829 459.996 195.377 461.56C212.51 464.688 224.796 472.35 232.687 477.372C247.347 486.695 243.682 488.101 252.486 492.353C273.771 502.629 291.038 492.377 297.796 503.582C299.61 506.588 300.365 510.657 299.318 513.981C295.969 524.612 274.733 526.176 261.619 523.964C245.728 521.276 234.403 511.769 228.108 505.244C228.851 509.57 230.495 515.826 234.586 521.887C238.507 527.703 242.55 530.147 241.819 533.116C241.101 536.061 236.084 537.967 231.919 537.271C230.385 537.014 226.622 536.024 217.831 523.133C214.421 518.135 211.901 513.749 210.22 510.657C209.465 513.614 208.552 518.282 208.698 523.964C209.027 536.183 213.971 542.476 210.987 546.423C208.917 549.172 204.144 549.282 201.088 547.669C196.789 545.397 195.742 539.592 194.232 530.611C193.416 525.736 192.661 518.771 193.088 510.23C191.578 512.27 189.008 515.178 185.087 517.305C176.551 521.936 168.186 519.296 166.055 518.551C163.522 521.251 160.259 525.223 157.3 530.611C151.918 540.423 152.027 546.728 146.256 550.577C143.09 552.691 138.219 554.011 135.978 551.824C132.8 548.72 136.051 539.69 138.268 533.519C141.239 525.235 145.111 519.003 148.167 514.8C147.826 515.411 142.858 523.817 133.701 523.952C126.554 524.062 121.951 519.04 121.135 518.123C120.733 527.41 118.919 534.546 117.323 539.336C114.109 549.013 111.637 549.637 110.845 549.734C107.886 550.101 105.232 545.922 104.757 545.164C99.6793 537.161 103.953 527.984 105.524 513.138C107.533 494.051 102.042 494.479 104.757 476.529H104.745Z" fill="white" stroke="#4E1A0A" stroke-width="3" stroke-miterlimit="10"/>
<path d="M119.905 476.81C121.05 476.248 123.022 475.466 125.579 475.331C128.599 475.16 130.961 475.979 132.191 476.504" stroke="#4E1A0A" stroke-width="3" stroke-miterlimit="10"/>
<path d="M146.511 476.627C148.155 476.162 150.286 475.735 152.807 475.612C155.23 475.502 157.312 475.722 158.944 476.003" stroke="#4E1A0A" stroke-width="3" stroke-miterlimit="10"/>
<path d="M130.706 490.777C133.458 490.691 135.041 489.86 135.991 489.066C136.624 488.541 137.233 487.82 138.17 487.82C139.071 487.82 139.631 488.504 140.35 489.066C141.239 489.762 142.7 490.52 145.172 490.63" stroke="#4E1A0A" stroke-width="3" stroke-miterlimit="10"/>
<path d="M25.7783 560.976C9.26655 556.455 1.44904 537.601 1.8387 536.012C2.30142 534.179 3.39733 532.896 3.39733 532.896C6.47806 528.571 11.7871 527.618 13.3458 527.275C26.789 524.392 55.4288 504.487 63.709 495.139C64.2813 494.503 65.6573 492.878 67.4351 492.952C69.9314 493.062 71.8188 496.446 75.8249 506.051C79.1979 514.115 80.8783 518.148 81.1097 519.467C84.0686 536.232 51.5322 568.002 25.7661 560.964L25.7783 560.976Z" fill="#EFBB72" stroke="#4E1A0A" stroke-width="3" stroke-miterlimit="10"/>
<path d="M66.8141 531.332C55.1122 537.625 41.9247 544.883 30.7464 558.789C28.7981 561.221 27.3247 563.322 26.3993 564.715C25.9731 567.306 25.6565 571.485 27.0203 576.262C27.617 578.364 28.4206 580.148 29.2 581.566C46.7224 593.369 49.0968 594.665 49.0968 594.665C55.9646 598.44 66.8019 602.473 83.3015 602.155C90.7537 599.015 99.2531 594.787 108.179 589.056C121.147 580.722 131.071 571.741 138.341 564.092C139.51 560.194 140.776 554.195 140.204 546.936C139.936 543.576 139.363 541.095 139.266 540.692C137.111 531.943 114.243 524.917 83.9225 523.219C76.7504 526.188 70.9664 529.108 66.8263 531.332H66.8141Z" fill="#EFBB72" stroke="#4E1A0A" stroke-width="3" stroke-miterlimit="10"/>
<path d="M31.3796 565.656C46.5398 569.456 61.9434 575.163 77.0792 583.435C78.0168 583.948 78.9544 584.474 79.8798 584.999" stroke="#4E1A0A" stroke-width="3" stroke-miterlimit="10"/>
<path d="M82.0472 597.78V588.115" stroke="#4E1A0A" stroke-width="3" stroke-miterlimit="10"/>
<path d="M83.3015 581.248C90.4249 573.44 98.9609 565.021 109.104 556.602C116.642 550.333 123.984 544.969 130.864 540.375" stroke="#4E1A0A" stroke-width="3" stroke-miterlimit="10"/>
<path d="M85.1645 529.145C85.4811 533.41 85.7855 537.674 86.1021 541.939C77.6636 547.254 69.0302 553.058 60.2995 559.412C57.4379 561.489 54.6373 563.567 51.9097 565.656" stroke="#4E1A0A" stroke-width="3" stroke-miterlimit="10"/>
<path d="M91.3748 543.185C93.9684 543.906 96.5499 544.639 99.1436 545.372C103.198 546.508 107.241 547.657 111.272 548.806" stroke="#4E1A0A" stroke-width="3" stroke-miterlimit="10"/>
<path d="M85.883 489.42C93.2986 486.928 91.9835 474.476 102.054 451.981C107.375 440.091 110.748 436.059 115.314 434.922C119.223 433.957 124.349 434.984 127.954 437.831C133.165 441.961 132.52 447.802 135.625 448.229C138.584 448.632 139.765 443.39 146.195 438.454C148.46 436.719 153.939 432.503 160.076 432.833C166.786 433.2 168.722 438.674 177.903 444.478C183.212 447.826 185.623 447.936 195.937 451.553C206.214 455.158 220.181 460.045 233.454 468.195C249.576 478.093 246.361 481.612 257.077 485.254C265.71 488.186 271.591 487.196 288.578 491.498C293.51 492.744 297.528 493.966 300.182 494.821C293.144 495.97 283.281 498.646 274.063 505.635C262.033 514.763 263.957 521.508 253.338 529.756C236.644 542.721 213.106 540.656 207.322 540.155C191.87 538.798 188.96 533.739 177.891 536.416C167.431 538.933 164.691 545.274 153.854 545.983C144.526 546.594 141.434 542.378 135.333 542.623C127.382 542.941 116.824 550.724 104.94 582.592C100.702 578.254 93.5665 572.132 83.3867 568.87C63.7943 562.577 54.0406 573.611 39.0023 567.721C19.5681 560.109 8.63335 531.039 15.8177 520.201C16.5848 519.028 21.1755 516.083 30.3202 510.217C38.3934 505.049 39.7573 504.303 44.8228 501.065C63.5385 489.115 65.2798 486.231 71.356 486.084C79.5876 485.889 80.9635 491.058 85.8586 489.408L85.883 489.42Z" fill="#EB724C" stroke="#4E1A0A" stroke-width="3" stroke-miterlimit="10" stroke-linejoin="bevel"/>
<path d="M94.1754 493.172C111.503 510.437 118.066 515.655 119.053 514.8C120.416 513.602 109.774 501.456 113.244 496.495C114.827 494.235 118.87 494.149 123.193 494.833" fill="#EB724C"/>
<path d="M94.1754 493.172C111.503 510.437 118.066 515.655 119.053 514.8C120.416 513.602 109.774 501.456 113.244 496.495C114.827 494.235 118.87 494.149 123.193 494.833" stroke="#4E1A0A" stroke-width="3" stroke-miterlimit="10" stroke-linejoin="bevel"/>
<path d="M238.434 481.099C243.877 484.569 246.739 488.626 245.898 490.251C245.058 491.864 240.151 491.828 234.294 489.42" fill="#EB724C"/>
<path d="M238.434 481.099C243.877 484.569 246.739 488.626 245.898 490.251C245.058 491.864 240.151 491.828 234.294 489.42" stroke="#4E1A0A" stroke-width="3" stroke-miterlimit="10" stroke-linejoin="bevel"/>
<path d="M131.899 456.147C136.831 458.249 141.908 457.785 144.746 454.901C145.379 454.253 146.304 453.08 146.816 451.162" fill="#EB724C"/>
<path d="M131.899 456.147C136.831 458.249 141.908 457.785 144.746 454.901C145.379 454.253 146.304 453.08 146.816 451.162" stroke="#4E1A0A" stroke-width="3" stroke-miterlimit="10" stroke-linejoin="bevel"/>
<path d="M79.2588 495.249C82.9606 505.012 85.8952 515.007 82.9849 516.877C81.0854 518.099 78.1994 514.885 74.2785 514.384C68.5067 513.639 60.397 518.759 48.9873 539.763" fill="#EB724C"/>
<path d="M79.2588 495.249C82.9606 505.012 85.8952 515.007 82.9849 516.877C81.0854 518.099 78.1994 514.885 74.2785 514.384C68.5067 513.639 60.397 518.759 48.9873 539.763" stroke="#4E1A0A" stroke-width="3" stroke-miterlimit="10" stroke-linejoin="bevel"/>
<path d="M102.102 481.576L112.83 470.969L102.102 481.576Z" fill="#EB724C"/>
<path d="M102.102 481.576L112.83 470.969" stroke="#E30613" stroke-width="3" stroke-miterlimit="10"/>
<path d="M113.768 480.794C116.617 477.983 119.467 475.173 122.316 472.375L113.768 480.794Z" fill="#EB724C"/>
<path d="M113.768 480.794C116.617 477.983 119.467 475.173 122.316 472.375" stroke="#E30613" stroke-width="3" stroke-miterlimit="10"/>
<path d="M121.999 481.417C124.325 479.132 126.663 476.847 128.989 474.55L121.999 481.417Z" fill="#EB724C"/>
<path d="M121.999 481.417C124.325 479.132 126.663 476.847 128.989 474.55" stroke="#E30613" stroke-width="3" stroke-miterlimit="10"/>
<path d="M168.015 482.736L157.288 472.13L168.015 482.736Z" fill="#E30613"/>
<path d="M168.015 482.736L157.288 472.13" stroke="#E30613" stroke-width="3" stroke-miterlimit="10"/>
<path d="M156.362 481.967C153.513 479.156 150.664 476.346 147.814 473.548L156.362 481.967Z" fill="#E30613"/>
<path d="M156.362 481.967C153.513 479.156 150.664 476.346 147.814 473.548" stroke="#E30613" stroke-width="3" stroke-miterlimit="10"/>
<path d="M148.119 482.59C145.793 480.305 143.455 478.02 141.129 475.723L148.119 482.59Z" fill="#E30613"/>
<path d="M148.119 482.59C145.793 480.305 143.455 478.02 141.129 475.723" stroke="#E30613" stroke-width="3" stroke-miterlimit="10"/>
<path d="M251.487 518.233C249.186 520.421 245.168 523.61 239.359 525.406C236.948 526.151 234.72 526.506 232.833 526.652" fill="#EB724C"/>
<path d="M251.487 518.233C249.186 520.421 245.168 523.61 239.359 525.406C236.948 526.151 234.72 526.506 232.833 526.652" stroke="#4E1A0A" stroke-width="3" stroke-miterlimit="10" stroke-linejoin="bevel"/>
<path d="M244.961 513.236C242.574 514.176 240.2 515.105 237.813 516.046L244.961 513.236Z" fill="#EB724C"/>
<path d="M244.961 513.236C242.574 514.176 240.2 515.105 237.813 516.046" stroke="#4E1A0A" stroke-width="3" stroke-miterlimit="10" stroke-linejoin="bevel"/>
<path d="M417.5 180.5L422.982 164.07L406.012 167.537L417.5 180.5ZM285.981 107.5C287.588 107.52 289.266 107.565 291.007 107.637L291.13 104.639C289.362 104.566 287.656 104.521 286.019 104.5L285.981 107.5ZM301.102 108.307C304.336 108.599 307.704 108.975 311.169 109.443L311.571 106.47C308.061 105.996 304.649 105.615 301.372 105.319L301.102 108.307ZM321.173 111.014C324.437 111.599 327.752 112.266 331.092 113.02L331.753 110.094C328.367 109.329 325.008 108.654 321.702 108.061L321.173 111.014ZM340.904 115.481C344.137 116.376 347.368 117.357 350.575 118.43L351.527 115.585C348.267 114.494 344.985 113.498 341.705 112.59L340.904 115.481ZM360.056 121.911C363.188 123.17 366.271 124.526 369.284 125.983L370.59 123.282C367.512 121.793 364.366 120.41 361.175 119.128L360.056 121.911ZM378.17 130.714C381.087 132.423 383.903 134.244 386.596 136.181L388.348 133.746C385.574 131.75 382.678 129.878 379.687 128.126L378.17 130.714ZM394.401 142.46C396.893 144.71 399.227 147.09 401.378 149.606L403.658 147.657C401.418 145.036 398.993 142.564 396.411 140.233L394.401 142.46ZM407.286 157.622C409.037 160.413 410.58 163.346 411.889 166.43L414.65 165.258C413.277 162.023 411.66 158.948 409.827 156.028L407.286 157.622Z" fill="black"/>
<path d="M107.308 395.437L99.5464 379.953L116.837 380.973L107.308 395.437ZM225.425 297.305C223.789 297.506 222.08 297.747 220.308 298.03L219.835 295.067C221.642 294.779 223.386 294.533 225.059 294.327L225.425 297.305ZM210.077 299.994C206.824 300.719 203.444 301.565 199.98 302.54L199.167 299.652C202.686 298.662 206.118 297.803 209.424 297.066L210.077 299.994ZM190.036 305.628C186.81 306.726 183.546 307.932 180.275 309.253L179.152 306.471C182.477 305.129 185.793 303.903 189.07 302.788L190.036 305.628ZM170.742 313.43C167.631 314.907 164.541 316.491 161.495 318.187L160.035 315.566C163.141 313.837 166.29 312.223 169.456 310.72L170.742 313.43ZM152.606 323.56C149.716 325.456 146.895 327.465 144.168 329.59L142.323 327.224C145.119 325.045 148.006 322.989 150.961 321.052L152.606 323.56ZM136.295 336.316C133.78 338.678 131.384 341.16 129.13 343.766L126.861 341.803C129.187 339.114 131.656 336.558 134.242 334.129L136.295 336.316ZM122.832 351.938C120.907 354.762 119.145 357.712 117.567 360.791L114.897 359.423C116.534 356.228 118.361 353.172 120.353 350.249L122.832 351.938ZM113.478 370.232C112.344 373.405 111.396 376.702 110.655 380.124L107.723 379.49C108.492 375.939 109.475 372.517 110.654 369.222L113.478 370.232Z" fill="black"/>
<defs>
<clipPath id="clip0_218_64">
<rect width="207" height="195" fill="white" transform="translate(55)"/>
</clipPath>
<clipPath id="clip1_218_64">
<rect width="310" height="165" fill="white" transform="translate(260 219)"/>
</clipPath>
</defs>
</svg>
