<svg width="320" height="73" viewBox="0 0 320 73" fill="none" xmlns="http://www.w3.org/2000/svg">
<path fill-rule="evenodd" clip-rule="evenodd" d="M38.2874 0.0171057C44.5834 0.267997 49.9111 4.01749 54.4247 8.43285C59.0153 12.9235 63.269 18.2064 63.4576 24.6395C63.6506 31.2199 60.0428 37.1784 55.4041 41.8298C50.7694 46.4771 44.8362 49.7991 38.2874 49.8784C31.6662 49.9585 25.3951 46.9917 20.7533 42.2491C16.1519 37.5477 13.5732 31.2319 13.5851 24.6395C13.597 18.0592 16.1662 11.729 20.8167 7.09358C25.4499 2.47533 31.7647 -0.242823 38.2874 0.0171057Z" fill="#F9BB72"/>
<path fill-rule="evenodd" clip-rule="evenodd" d="M9.72905 44.1051C12.5278 44.1953 14.8225 46.2356 16.5452 48.4406C18.0529 50.3706 18.554 52.8033 18.4346 55.2484C18.3219 57.5568 17.3715 59.6305 15.9114 61.4233C14.2368 63.4796 12.3653 65.6335 9.72905 65.9379C6.86439 66.2688 3.74626 65.2753 1.92995 63.0381C0.216974 60.9282 0.95514 57.9632 1.05047 55.2484C1.14041 52.6869 0.882851 50.0098 2.45848 47.9867C4.21248 45.7345 6.87379 44.0131 9.72905 44.1051Z" fill="#F9BB72"/>
<path d="M76.6758 66.0859C72.1602 70.0482 65.5195 72.0293 56.7539 72.0293C48.0104 72.0293 41.3698 70.0482 36.832 66.0859C32.2943 62.1016 30.0254 55.804 30.0254 47.1934C30.0254 38.5827 32.2943 32.2962 36.832 28.334C41.3698 24.3717 48.0104 22.3906 56.7539 22.3906C65.5195 22.3906 72.1602 24.3717 76.6758 28.334C81.2135 32.2962 83.4824 38.5827 83.4824 47.1934C83.4824 55.804 81.2135 62.1016 76.6758 66.0859ZM67.6113 35.3398C65.3757 32.6836 61.7565 31.3555 56.7539 31.3555C51.7734 31.3555 48.1543 32.6836 45.8965 35.3398C43.6608 37.9961 42.543 41.9583 42.543 47.2266C42.543 52.4727 43.6608 56.4238 45.8965 59.0801C48.1543 61.7142 51.7734 63.0312 56.7539 63.0312C61.7565 63.0312 65.3757 61.7142 67.6113 59.0801C69.847 56.4238 70.9648 52.4727 70.9648 47.2266C70.9648 41.9583 69.847 37.9961 67.6113 35.3398ZM87.2902 68.9746V65.0234C87.2902 64.4258 87.4783 63.9388 87.8546 63.5625C88.253 63.1641 88.7511 62.9648 89.3488 62.9648H91.9386L96.4874 44.6699C98.1697 37.9629 103.726 34.6094 113.155 34.6094H128.23C128.827 34.6094 129.314 34.8086 129.691 35.207C130.089 35.5833 130.288 36.0703 130.288 36.668V68.9746C130.288 69.5501 130.089 70.0371 129.691 70.4355C129.314 70.8118 128.827 71 128.23 71H89.3488C88.7511 71 88.253 70.8118 87.8546 70.4355C87.4783 70.0371 87.2902 69.5501 87.2902 68.9746ZM102.796 62.9648H118.8V42.6445H112.79C109.581 42.6445 107.544 44.2715 106.681 47.5254L102.796 62.9648ZM143.891 66.8164C140.482 63.5846 138.778 58.9362 138.778 52.8711C138.778 46.7839 140.493 42.1133 143.924 38.8594C147.355 35.5833 152.114 33.9453 158.201 33.9453C164.289 33.9453 169.037 35.5391 172.446 38.7266C175.854 41.8919 177.559 46.4408 177.559 52.373V54.2656C177.559 54.8633 177.36 55.3613 176.961 55.7598C176.585 56.1361 176.098 56.3242 175.5 56.3242H150.498C150.72 59.0469 151.494 61.028 152.823 62.2676C154.173 63.5072 156.32 64.127 159.264 64.127C162.208 64.127 164.222 63.4629 165.307 62.1348C166.392 60.8066 167.731 60.1315 169.324 60.1094H174.272C174.869 60.1094 175.356 60.3086 175.733 60.707C176.131 61.0833 176.33 61.5703 176.33 62.168C176.33 68.5208 170.276 71.6862 158.168 71.6641C152.059 71.6641 147.3 70.0482 143.891 66.8164ZM150.432 49.3184H165.871C165.65 44.0944 163.082 41.4824 158.168 41.4824C153.276 41.4824 150.698 44.0944 150.432 49.3184ZM184.421 46.3301C184.421 38.5384 189.357 34.6315 199.23 34.6094H218.82C219.417 34.6094 219.904 34.8086 220.281 35.207C220.657 35.5833 220.845 36.0703 220.845 36.668V68.9746C220.845 69.5723 220.657 70.0592 220.281 70.4355C219.904 70.8118 219.417 71 218.82 71H211.415C210.818 71 210.32 70.8118 209.921 70.4355C209.545 70.0371 209.357 69.5501 209.357 68.9746V58.0176H202.849L197.204 68.0781C196.12 70.026 194.393 71 192.025 71H186.048C185.229 71 184.698 70.7012 184.454 70.1035C184.366 69.9043 184.322 69.6497 184.322 69.3398C184.322 69.0078 184.488 68.5872 184.82 68.0781L191.494 56.9219C186.779 55.1732 184.421 51.6426 184.421 46.3301ZM197.072 43.3086C196.297 44.0391 195.91 45.0462 195.91 46.3301C195.91 47.5918 196.286 48.599 197.038 49.3516C197.813 50.1042 198.887 50.4805 200.259 50.4805H209.357V42.1797H200.259C198.909 42.1797 197.846 42.556 197.072 43.3086ZM228.073 68.8086L234.049 44.6699C235.732 37.9629 241.288 34.6094 250.717 34.6094H266.422C266.998 34.6094 267.474 34.8086 267.85 35.207C268.249 35.5833 268.448 36.0703 268.448 36.668V68.9746C268.448 69.5501 268.249 70.0371 267.85 70.4355C267.474 70.8118 266.998 71 266.422 71H258.985C258.409 71 257.922 70.8118 257.524 70.4355C257.148 70.0371 256.959 69.5501 256.959 68.9746V42.6445H250.717C247.618 42.6445 245.659 44.2715 244.84 47.5254L239.627 68.543C239.428 69.2734 239.03 69.8711 238.432 70.3359C237.857 70.7786 237.237 71 236.573 71H229.766C229.168 71 228.715 70.8229 228.405 70.4688C228.117 70.0924 227.973 69.7715 227.973 69.5059C227.973 69.2402 228.006 69.0078 228.073 68.8086ZM282.117 66.8828C278.664 63.6953 276.937 59.0026 276.937 52.8047C276.937 46.5846 278.664 41.8919 282.117 38.7266C285.57 35.5391 290.528 33.9453 296.992 33.9453C303.477 33.9453 308.447 35.5391 311.9 38.7266C315.353 41.8919 317.08 46.5846 317.08 52.8047C317.08 59.0026 315.353 63.6953 311.9 66.8828C308.447 70.0703 303.477 71.6641 296.992 71.6641C290.528 71.6641 285.57 70.0703 282.117 66.8828ZM290.517 44.1719C289.145 45.9648 288.459 48.8314 288.459 52.7715C288.459 56.7116 289.145 59.5892 290.517 61.4043C291.89 63.2194 294.048 64.127 296.992 64.127C299.958 64.127 302.127 63.2194 303.5 61.4043C304.894 59.5892 305.591 56.7116 305.591 52.7715C305.591 48.8314 304.894 45.9648 303.5 44.1719C302.127 42.3789 299.958 41.4824 296.992 41.4824C294.048 41.4824 291.89 42.3789 290.517 44.1719Z" fill="white"/>
</svg>
