<svg width="166" height="162" viewBox="0 0 166 162" fill="none" xmlns="http://www.w3.org/2000/svg">
<g clip-path="url(#clip0_16_204)">
<path fill-rule="evenodd" clip-rule="evenodd" d="M10.5672 36.3365C20.4419 16.0743 36.0126 -3.05855 59.3634 -6.76345C83.7299 -10.6295 111.59 -1.08014 130.072 17.3755C146.807 34.086 145.641 58.4402 146.801 80.5474C147.735 98.3302 145.128 115.055 135.957 129.467C126.013 145.093 113.432 160.329 94.1582 163.269C74.0136 166.342 51.9542 158.721 35.4297 144.802C19.8216 131.654 15.0831 111.938 10.7426 93.0027C6.24835 73.396 2.24871 53.4053 10.5672 36.3365Z" fill="#FAEEC7"/>
<path d="M154.476 143.726C159.684 135.244 161.981 127.502 163.086 122.376C163.086 122.376 167.719 100.94 159.124 81.2804C157.582 77.7597 155.083 72.8291 151.097 67.4623C151.097 67.4623 148.94 64.557 146.815 62.228C139.597 54.3219 122.111 42.3343 109.662 47.5297C105.504 49.2667 102.18 52.8108 100.981 54.096C99.1979 55.9966 97.236 58.1386 97.8199 59.9302C98.5206 62.0722 102.374 62.228 102.328 63.225C102.265 64.4868 96.1148 63.8248 94.8847 66.4264C93.8415 68.6385 97.4695 70.9052 100.607 77.9077C103.169 83.6327 101.822 84.5363 103.768 86.5147C106.415 89.2176 109.755 88.3686 122.321 88.9683C132.185 89.4357 133.205 90.1056 133.758 90.5651C140.306 95.9085 134.552 112.858 133.478 116.153C128.993 129.932 120.165 139.318 113.469 144.926C127.14 144.529 140.804 144.132 154.476 143.734V143.726Z" fill="white" stroke="#4E1A0A" stroke-width="3" stroke-linejoin="bevel"/>
<path d="M136.39 53.5197C130.457 43.6897 130.379 37.801 131.5 34.2024C131.991 32.629 133.673 28.3761 131.796 25.1358C131.508 24.6451 130.971 23.7337 129.935 23.3676C127.343 22.4485 123.855 25.6732 122.329 27.714C119.479 31.5229 120.087 36.2042 120.375 38.9227C120.733 42.3032 121.761 44.9437 122.531 46.5795" fill="white"/>
<path d="M136.39 53.5197C130.457 43.6897 130.379 37.801 131.5 34.2024C131.991 32.629 133.673 28.3761 131.796 25.1358C131.508 24.6451 130.971 23.7337 129.935 23.3676C127.343 22.4485 123.855 25.6732 122.329 27.714C119.479 31.5229 120.087 36.2042 120.375 38.9227C120.733 42.3032 121.761 44.9437 122.531 46.5795L136.39 53.5197Z" stroke="#4E1A0A" stroke-width="3" stroke-linejoin="bevel"/>
<path d="M11.5244 143.726C6.31586 135.244 4.01911 127.502 2.91356 122.376C2.91356 122.376 -1.71887 100.94 6.87642 81.2804C8.41797 77.7597 10.9171 72.8291 14.9034 67.4623C14.9034 67.4623 17.06 64.557 19.1854 62.228C26.4027 54.3219 43.8891 42.3343 56.3383 47.5297C60.4958 49.2667 63.8202 52.8108 65.0192 54.096C66.8021 55.9966 68.7641 58.1386 68.1802 59.9302C67.4795 62.0722 63.6256 62.228 63.6723 63.225C63.7346 64.4868 69.8852 63.8248 71.1153 66.4264C72.1586 68.6385 68.5305 70.9052 65.3929 77.9077C62.8315 83.6327 64.1784 84.5363 62.232 86.5147C59.5849 89.2176 56.2448 88.3686 43.6789 88.9683C33.8146 89.4357 32.7947 90.1056 32.2419 90.5651C25.6942 95.9085 31.4477 112.858 32.5222 116.153C37.0067 129.932 45.8355 139.318 52.5311 144.926C38.8596 144.529 25.1959 144.132 11.5244 143.734V143.726Z" fill="white" stroke="#4E1A0A" stroke-width="3" stroke-linejoin="bevel"/>
<path d="M29.6182 53.5197C35.5508 43.6897 35.6286 37.801 34.5075 34.2024C34.017 32.629 32.3353 28.3761 34.2117 25.1358C34.4997 24.6451 35.0369 23.7337 36.0724 23.3676C38.665 22.4485 42.153 25.6732 43.6789 27.714C46.5285 31.5229 45.9212 36.2042 45.6331 38.9227C45.275 42.3032 44.2473 44.9437 43.4765 46.5795" fill="white"/>
<path d="M29.6182 53.5197C35.5508 43.6897 35.6286 37.801 34.5075 34.2024C34.017 32.629 32.3353 28.3761 34.2117 25.1358C34.4997 24.6451 35.0369 23.7337 36.0724 23.3676C38.665 22.4485 42.153 25.6732 43.6789 27.714C46.5285 31.5229 45.9212 36.2042 45.6331 38.9227C45.275 42.3032 44.2473 44.9437 43.4765 46.5795L29.6182 53.5197Z" stroke="#4E1A0A" stroke-width="3" stroke-linejoin="bevel"/>
<path d="M23.4675 49.9289C27.6328 33.4001 25.4061 26.3977 22.2763 23.1495C21.4432 22.2849 19.6214 20.7349 19.6837 18.6084C19.7849 15.1267 24.8377 12.5484 29.0342 10.6868C43.9903 4.05041 56.0658 2.46141 56.0658 2.46141C72.1586 0.342741 83.5333 1.21513 98.0768 2.32899C98.0768 2.32899 114.092 3.5519 126.307 11.3411C127.545 12.1278 129.492 13.4909 129.289 14.854C128.916 17.4401 121.083 18.4449 116.63 18.6318C105.099 19.1147 96.1226 14.9164 94.3631 14.1219C85.4564 10.1182 70.5703 7.60228 44.4029 14.3867C46.1313 16.9805 47.9843 20.252 49.5726 24.2011C52.1885 30.7207 53.0683 36.6171 53.3486 40.9089" stroke="#4E1A0A" stroke-width="3" stroke-miterlimit="10"/>
<path d="M54.5397 92.2164C52.8347 97.552 51.2153 104.741 51.1608 113.294C51.044 131.147 57.8175 144.599 61.6947 151.08C64.1238 150.145 67.9777 148.867 72.8281 148.096C84.0004 146.328 91.4824 148.719 102.25 150.082C108.214 150.838 117.019 151.508 128.09 150.682" stroke="#4E1A0A" stroke-width="3" stroke-miterlimit="10"/>
<path d="M28.2946 148.603C28.4503 150.285 29.1977 154.553 34.0715 157.693C34.3284 157.856 35.7142 158.744 37.6528 159.453C44.6521 162.023 53.5666 160.411 60.5113 159.414C70.2822 158.012 81.8283 156.361 94.9003 157.178C99.6028 157.474 102.188 157.942 106.127 158.199C106.127 158.199 108.766 158.331 111.6 158.37C121.854 158.518 139.792 156.703 141.232 156.555" stroke="#4E1A0A" stroke-width="3" stroke-miterlimit="10"/>
</g>
<defs>
<clipPath id="clip0_16_204">
<rect width="165" height="162" fill="white" transform="translate(0.5)"/>
</clipPath>
</defs>
</svg>
