<svg width="186" height="162" viewBox="0 0 186 162" fill="none" xmlns="http://www.w3.org/2000/svg">
<g clip-path="url(#clip0_16_173)">
<path d="M94.7522 141.026C127.135 141.026 153.386 114.765 153.386 82.3714C153.386 49.9776 127.135 23.7172 94.7522 23.7172C62.3699 23.7172 36.1188 49.9776 36.1188 82.3714C36.1188 114.765 62.3699 141.026 94.7522 141.026Z" fill="#F9BB72"/>
<path d="M12.6328 158.743C6.90059 149.409 4.37291 140.889 3.1562 135.249C3.1562 135.249 -1.94199 111.66 7.51751 90.0257C9.21405 86.1514 11.9645 80.7257 16.3515 74.82C16.8228 74.1857 18.665 71.7171 21.0641 69.06C21.0641 69.06 24.6029 65.16 28.9727 61.5342C37.6097 54.3857 48.86 49.2342 51.302 48.1371C54.4294 46.6714 66.5365 41.4428 75.0964 46.0885C75.9018 46.5257 77.804 47.58 77.7097 48.8228C77.5212 51.4457 68.6358 51.4885 59.6219 56.0228C54.5151 58.5942 51.0106 61.7914 48.9199 63.9771C55.4919 61.1914 61.2413 59.6914 65.4398 58.8342C73.1942 57.2485 80.3659 55.8771 86.6637 59.3228C87.1435 59.5885 91.6248 62.0828 91.1278 63.9171C90.5709 65.9828 84.2474 65.2885 74.9764 66.5314C62.835 68.1514 54.6779 71.88 54.7379 72.0771C54.7893 72.2485 61.1556 69.9942 70.0153 70.1571C74.865 70.2428 77.2899 70.9971 78.8493 71.64C80.3659 72.2657 85.884 74.5285 86.7579 79.08C86.9122 79.8685 87.2977 81.8828 86.1496 82.86C84.1274 84.5828 79.372 81.3428 74.428 80.0314C70.1181 78.8828 63.6233 78.6514 54.2666 83.0228C53.9239 85.2942 53.0928 88.44 50.7793 91.3371C45.981 97.3542 39.649 96.2828 35.4247 100.234C28.5358 106.689 33.6425 121.963 35.7332 128.391C40.6686 143.554 50.3851 153.883 57.754 160.054C42.7079 159.617 27.6704 159.18 12.6243 158.743H12.6328Z" fill="white" stroke="#4E1A0A" stroke-width="3" stroke-linejoin="round"/>
<path d="M20.6357 69.5914C25.7767 61.2514 25.8367 56.0914 24.7485 52.8343C24.2944 51.48 22.7349 47.7085 24.5 44.7257C24.7656 44.28 25.254 43.4743 26.2051 43.14C28.5786 42.3085 31.7574 45.1885 33.1455 47.0143C36.1016 50.8885 35.2362 55.6028 34.9106 57.0428" stroke="#4E1A0A" stroke-width="3" stroke-linejoin="round"/>
<path d="M173.367 159.403C179.099 150.069 181.627 141.549 182.844 135.909C182.844 135.909 187.942 112.32 178.483 90.6857C176.786 86.8114 174.036 81.3857 169.649 75.48C169.177 74.8457 167.335 72.3772 164.936 69.72C152.006 55.3629 134.698 48.7972 134.698 48.7972C128.46 46.4314 118.315 42.7286 110.904 46.7486C110.098 47.1857 108.196 48.24 108.29 49.4829C108.479 52.1057 117.364 52.1486 126.378 56.6829C131.485 59.2543 134.989 62.4514 137.08 64.6372C130.508 61.8514 124.759 60.3514 120.56 59.4943C112.806 57.9086 105.634 56.5372 99.3363 59.9829C98.8565 60.2486 94.3752 62.7429 94.8722 64.5772C95.4292 66.6429 101.753 65.9486 111.024 67.1914C123.165 68.8114 131.322 72.54 131.262 72.7372C131.211 72.9086 124.844 70.6543 115.985 70.8172C111.135 70.9029 108.71 71.6572 107.151 72.3C105.634 72.9257 100.116 75.1886 99.2421 79.74C99.0879 80.5286 98.7023 82.5429 99.8504 83.52C101.873 85.2429 106.628 82.0029 111.572 80.6914C115.882 79.5429 122.377 79.3114 131.733 83.6829C132.076 85.9543 132.907 89.1 135.221 91.9972C140.019 98.0143 146.351 96.9429 150.575 100.894C157.464 107.349 152.358 122.623 150.267 129.051C145.331 144.214 135.615 154.543 128.246 160.714C143.292 160.277 158.33 159.84 173.376 159.403H173.367Z" fill="white" stroke="#4E1A0A" stroke-width="3" stroke-linejoin="bevel"/>
<path d="M165.364 70.2514C160.223 61.9114 160.163 56.7514 161.252 53.4943C161.706 52.14 163.265 48.3686 161.5 45.3857C161.234 44.94 160.746 44.1343 159.795 43.8C157.421 42.9686 154.243 45.8486 152.854 47.6743C149.898 51.5486 150.764 56.2629 151.089 57.7029" stroke="#4E1A0A" stroke-width="3" stroke-linejoin="bevel"/>
<path d="M59.5362 40.26C63.1092 36.9 70.5209 30.8486 81.7112 27.6857C85.7726 26.5371 96.1746 23.7429 108.89 27.2229C122.368 30.9086 130.405 39.4371 133.396 42.9771" stroke="#4E1A0A" stroke-width="3" stroke-miterlimit="10"/>
<path d="M52.2274 32.2543C47.1206 28.02 42.0224 23.7943 36.9156 19.56" stroke="#4E1A0A" stroke-width="3" stroke-miterlimit="10"/>
<path d="M74.3252 19.1228C71.9175 13.5771 69.5098 8.03141 67.1021 2.49426" stroke="#4E1A0A" stroke-width="3" stroke-miterlimit="10"/>
<path d="M133.387 28.8515C138.494 24.6172 143.592 20.3915 148.699 16.1572" stroke="#4E1A0A" stroke-width="3" stroke-miterlimit="10"/>
<path d="M110.184 17.1429C112.592 11.5971 114.999 6.05142 117.407 0.514282" stroke="#4E1A0A" stroke-width="3" stroke-miterlimit="10"/>
<path d="M43.479 100.311C45.2012 104.451 55.2177 127.389 80.0146 135.763C85.2242 137.52 100.793 142.783 117.424 135.103C137.8 125.7 143.206 104.529 143.892 101.623" stroke="#4E1A0A" stroke-width="3" stroke-miterlimit="10"/>
</g>
<defs>
<clipPath id="clip0_16_173">
<rect width="185" height="162" fill="white" transform="translate(0.5)"/>
</clipPath>
</defs>
</svg>
