<svg width="172" height="162" viewBox="0 0 172 162" fill="none" xmlns="http://www.w3.org/2000/svg">
<g clip-path="url(#clip0_16_196)">
<path fill-rule="evenodd" clip-rule="evenodd" d="M92.433 10.3582C110.382 11.4036 128.505 15.5842 141.082 28.5328C153.546 41.3643 159.402 59.6906 157.716 77.5673C156.162 94.0426 143.038 105.284 132.635 118.087C120.259 133.319 111.904 156.345 92.433 157.912C72.6373 159.505 59.4365 139.131 45.2566 125.117C30.8502 110.88 12.6038 97.8489 11.133 77.5673C9.59756 56.3931 21.5301 35.9818 37.8165 22.5181C52.8027 10.1294 73.0833 9.23118 92.433 10.3582Z" fill="#EB724C"/>
<path d="M16.8262 159.344C11.7461 151.055 9.50603 143.489 8.42774 138.481C8.42774 138.481 3.90955 117.534 12.2929 98.3234C13.7964 94.8831 16.2339 90.0651 20.1219 84.8209C20.5395 84.2577 22.1721 82.0656 24.2983 79.7061C24.2983 79.7061 27.4345 76.2429 31.3072 73.0233C35.8937 69.2176 43.5936 59.772 51.0961 61.1268C54.6651 61.7737 58.5682 64.8259 58.4771 68.1292C58.3859 71.3108 54.5816 74.6826 48.9927 75.1926C49.2053 74.2259 49.6533 72.8711 50.7012 71.6685C53.6096 68.3271 59.6845 67.7563 63.6255 70.6257C66.1542 72.4677 68.5538 76.2658 67.3919 78.8536C65.4556 83.1845 54.1867 82.7278 54.1411 82.3853C54.0956 82.0808 62.4713 79.2342 65.6834 82.4538C67.4755 84.2501 67.278 87.5382 66.3288 89.6465C64.7342 93.1934 60.178 95.2789 55.2118 94.2438C54.2854 95.5986 52.7971 97.5395 50.6405 99.488C44.6188 104.93 40.2069 104.413 37.0328 107.389C30.9275 113.12 35.4533 126.683 37.3062 132.392C41.6801 145.856 50.2912 155.028 56.8217 160.508C43.4873 160.12 30.1606 159.732 16.8262 159.344Z" fill="white" stroke="#4E1A0A" stroke-width="3" stroke-linejoin="round"/>
<path d="M13.0371 83.8086C7.63042 83.6639 3.08946 80.1703 1.92005 75.5198C0.545607 70.0472 4.43352 65.3815 7.34946 63.3416C11.2146 60.6396 15.4974 61.0735 20.0156 61.5301C25.8398 62.1162 30.2593 64.1408 32.8108 65.5489C26.9105 63.5319 23.5314 58.0898 24.2832 53.6296C25.2172 48.0809 32.6513 43.3086 40.4423 46.1172C39.3033 46.2618 30.5403 47.2589 26.098 41.8396C20.4712 34.9741 25.1109 21.8902 33.5929 17.0951C34.4206 16.6308 40.8144 13.1524 47.5499 16.0599C54.1411 18.9066 58.2569 26.6473 57.2469 35.2329C57.2317 34.9361 57.0191 30.1181 60.6109 27.5911C63.8913 25.2773 68.9562 25.871 72.2443 29.4026C71.1204 27.6292 68.9411 23.6256 69.0094 18.2596C69.0322 16.7221 69.1461 8.15173 75.9879 3.62298C80.377 0.707833 85.1154 1.07318 86.8467 1.29391" stroke="#4E1A0A" stroke-width="3" stroke-linejoin="round"/>
<path d="M42.1812 115.814C40.222 120.145 40.6397 125.26 43.2747 129.028C46.2134 133.221 51.415 135.056 56.2825 133.564C55.7813 134.104 53.9664 136.205 53.974 139.265C53.974 142.477 55.9863 146.488 59.5629 146.907C62.8889 147.302 66.2908 144.456 66.7388 140.3C63.5268 145.232 63.7925 151.732 67.2248 155.979C71.1887 160.881 78.5469 161.734 83.0271 157.791C87.3251 154.008 86.8543 147.668 86.7935 147.036" stroke="#4E1A0A" stroke-width="3" stroke-linejoin="round"/>
<path d="M158.963 83.8086C164.37 83.6639 168.911 80.1703 170.08 75.5198C171.454 70.0472 167.567 65.3815 164.651 63.3416C160.785 60.6396 156.503 61.0735 151.984 61.5301C146.16 62.1162 141.741 64.1408 139.189 65.5489C145.09 63.5319 148.469 58.0898 147.717 53.6296C146.783 48.0809 139.349 43.3086 131.558 46.1172C132.697 46.2618 141.46 47.2589 145.902 41.8396C151.529 34.9741 146.889 21.8902 138.407 17.0951C137.579 16.6308 131.186 13.1524 124.45 16.0599C117.859 18.9066 113.743 26.6473 114.753 35.2329C114.768 34.9361 114.981 30.1181 111.389 27.5911C108.109 25.2773 103.044 25.871 99.7558 29.4026C100.88 27.6292 103.059 23.6256 102.991 18.2596C102.968 16.7221 102.854 8.15173 96.0121 3.62298C91.6231 0.707833 86.8847 1.07318 85.1533 1.29391" stroke="#4E1A0A" stroke-width="3" stroke-linejoin="round"/>
<path d="M155.432 159.344C160.512 151.055 162.752 143.489 163.831 138.481C163.831 138.481 168.349 117.534 159.965 98.3234C158.462 94.8831 156.024 90.0651 152.136 84.8209C151.719 84.2577 150.086 82.0656 147.96 79.7061C147.96 79.7061 144.824 76.2429 140.951 73.0233C136.365 69.2176 128.665 59.772 121.162 61.1268C117.593 61.7737 113.69 64.8259 113.781 68.1292C113.872 71.3108 117.677 74.6826 123.266 75.1926C123.053 74.2259 122.605 72.8711 121.557 71.6685C118.649 68.3271 112.574 67.7563 108.633 70.6257C106.104 72.4677 103.704 76.2658 104.866 78.8536C106.803 83.1845 118.072 82.7278 118.117 82.3853C118.163 82.0808 109.787 79.2342 106.575 82.4538C104.783 84.2501 104.98 87.5382 105.929 89.6465C107.524 93.1934 112.08 95.2789 117.046 94.2438C117.973 95.5986 119.461 97.5395 121.618 99.488C127.639 104.93 132.051 104.413 135.225 107.389C141.331 113.12 136.805 126.683 134.952 132.392C130.578 145.856 121.967 155.028 115.437 160.508C128.771 160.12 142.098 159.732 155.432 159.344Z" fill="white" stroke="#4E1A0A" stroke-width="3" stroke-linejoin="round"/>
<path d="M130.244 116.4C132.15 120.731 131.748 125.846 129.181 129.614C126.326 133.808 121.268 135.642 116.538 134.15C117.024 134.69 118.785 136.791 118.785 139.851C118.785 143.063 116.834 147.074 113.348 147.493C110.113 147.889 106.81 145.042 106.377 140.886C109.498 145.818 109.24 152.318 105.907 156.565C102.057 161.467 94.9035 162.32 90.5448 158.377C86.3683 154.594 86.8239 148.254 86.8847 147.622" stroke="#4E1A0A" stroke-width="3" stroke-linejoin="round"/>
</g>
<defs>
<clipPath id="clip0_16_196">
<rect width="171" height="162" fill="white" transform="translate(0.5)"/>
</clipPath>
</defs>
</svg>
