<svg width="308" height="215" viewBox="0 0 308 215" fill="none" xmlns="http://www.w3.org/2000/svg">
<g clip-path="url(#clip0_16_218)">
<path fill-rule="evenodd" clip-rule="evenodd" d="M288.954 170.096C300.166 150.647 318.608 130.032 296.48 110.617C270.987 88.2489 221.503 65.9937 170.726 66.3628C121.35 66.7218 110.767 96.5733 78.1254 112.204C52.0081 124.711 4.15701 129.137 1.1823 147.554C-1.82652 166.182 31.3481 184.3 64.4021 197.168C91.6429 207.773 126.279 207.791 159.537 209.202C189.034 210.454 218.937 211.754 242.234 204.714C267.628 197.041 280.855 184.145 288.954 170.096Z" fill="#EB724C"/>
<path d="M71.6795 135.946C60.9683 126.398 54.8276 112.15 52.8626 107.591C45.3885 90.2189 45.3096 75.3993 45.2481 64.4172C45.2218 59.5768 45.3973 43.7046 51.7397 24.6331C54.2574 17.0658 58.7489 3.5558 64.951 3.47292C69.3899 3.40661 69.8197 10.2942 77.943 15.748C85.9084 21.094 98.5319 23.2158 107.506 18.9224C118.875 13.4853 118.375 0.646586 124.972 0.513972C130.727 0.397935 135.516 10.0787 140.201 19.5606C144.464 28.1888 146.649 35.7561 147.815 40.7208C151.535 37.1568 157.658 32.2335 166.404 28.8684C194.213 18.1599 220.53 33.9824 222.17 35.0018C242.33 47.5587 247.672 67.2021 249.269 73.0951C253.795 89.7713 250.242 103.232 249.497 105.892C244.338 124.317 231.513 135.183 225.399 140.223C189.686 169.663 130.481 168.37 100.769 147.375C88.0488 138.383 85.7768 129.34 85.3118 127.268C83.0135 116.907 87.1891 105.146 95.8387 98.2752C104.515 91.3792 115.077 91.4787 122.463 91.6528C147.938 92.2495 153.5 106.663 182.519 108.859C193.151 109.663 202.047 108.453 208.95 103.356C215.039 98.8636 216.451 91.2466 217.24 91.5036C218.24 91.8268 215.53 103.646 213.03 109.589C198.134 145.088 108.453 168.743 71.6532 135.937L71.6795 135.946Z" fill="white"/>
<path d="M72.39 136.683C66.8459 130.832 59.2226 121.424 53.5732 108.329C46.0991 90.9813 46.0201 76.286 45.9587 65.1548C45.9324 60.3144 46.1079 44.4422 52.4503 25.3706C54.968 17.8034 59.4595 4.29335 65.6616 4.21046C70.1004 4.14416 70.5303 11.0318 78.6536 16.4855C86.6189 21.8315 99.2425 23.9533 108.217 19.66C119.586 14.2228 119.086 1.38413 125.683 1.25152C131.437 1.13548 136.227 10.8163 140.911 20.2982C145.175 28.9263 147.359 36.4936 148.526 41.4583C152.245 37.8944 158.369 32.9711 167.115 29.606C194.923 18.8974 221.241 34.7199 222.881 35.7394C243.04 48.2962 248.383 67.9397 249.979 73.8327C254.506 90.5089 250.953 103.969 250.207 106.63C245.049 125.055 232.224 135.921 226.109 140.96C190.397 170.4 131.192 169.107 101.479 148.113C88.7594 139.12 86.4873 130.077 86.0224 128.005C83.724 117.645 87.8997 105.884 96.5493 99.0127C105.225 92.1168 115.787 92.2163 123.174 92.3903C148.649 92.9871 154.21 107.401 183.23 109.597C198.02 110.716 205.196 107.616 209.661 104.093C214.468 100.297 216.784 95.4902 217.951 92.2411" stroke="#4E1A0A" stroke-width="3" stroke-miterlimit="10"/>
<path d="M108.234 47.799C108.55 48.1388 112.98 52.6974 119.586 51.7526C125.349 50.9237 128.174 46.5558 128.542 45.9673" stroke="#4E1A0A" stroke-width="3" stroke-miterlimit="10"/>
<path d="M88.6454 70.31C89.1279 70.4758 94.1369 72.0754 97.988 69.2574C99.4179 68.2131 100.181 66.9284 100.593 66.0498C101.216 66.8704 102.462 68.2379 104.497 69.0999C108.971 70.9897 113.313 68.7684 113.884 68.47" stroke="#4E1A0A" stroke-width="3" stroke-miterlimit="10"/>
<path d="M66.8284 50.758C67.1442 51.0978 71.5743 55.6564 78.1799 54.7115C83.9434 53.8827 86.7681 49.5147 87.1365 48.9263" stroke="#4E1A0A" stroke-width="3" stroke-miterlimit="10"/>
<path d="M54.0293 122.709C39.3969 123.555 27.1155 124.732 17.5974 125.809C11.9392 126.455 7.21088 127.069 4.15808 130.608C-0.228137 135.697 1.47371 143.82 2.66677 149.514C4.19317 156.783 7.0793 161.913 7.746 163.057C20.6502 185.435 51.1169 197.661 61.5035 201.714C72.2234 205.891 80.7151 207.996 82.7064 208.485C114.34 216.202 145.57 214.428 177.677 209.613C177.677 209.613 258.427 201.49 295.341 178.854C299.131 176.534 301.017 174.362 301.912 173.21C307.649 165.842 307.035 156.31 306.096 144.151C305.807 140.405 305.43 135.598 304.605 132.299C299.166 110.708 260.594 100.115 255.33 98.7227" stroke="#4E1A0A" stroke-width="3" stroke-miterlimit="10"/>
<path d="M81.5576 202.433C83.1718 202.383 88.5317 202.043 92.6109 198.198C98.7867 192.371 97.848 182.4 93.5057 177.319C90.2073 173.457 85.3122 172.835 80.9611 171.957C53.9771 166.495 24.5632 146.404 18.5453 137.535C17.9663 136.673 15.8609 133.3 12.5713 133.018C10.9747 132.885 9.56231 133.515 8.9307 133.955C4.71993 136.889 7.94819 150.241 13.3169 159.823C21.0191 173.556 33.5637 180.286 41.687 184.514C45.9416 186.727 73.8905 200.866 83.049 192.271C85.7596 189.727 87.0404 184.986 85.2684 182.632C83.2069 179.897 77.4697 181.016 73.3379 181.405C52.8016 183.353 35.2041 170.863 33.1689 169.412C28.8704 166.362 20.291 159.118 15.2468 144.298" stroke="#4E1A0A" stroke-width="3" stroke-miterlimit="10"/>
<path d="M128.683 184.789C131.569 186.762 134.455 188.743 137.341 190.715" stroke="#4E1A0A" stroke-width="3" stroke-miterlimit="10"/>
<path d="M174.08 175.191L173.484 183.653" stroke="#4E1A0A" stroke-width="3" stroke-miterlimit="10"/>
<path d="M206.336 186.48L216.486 189.58" stroke="#4E1A0A" stroke-width="3" stroke-miterlimit="10"/>
<path d="M223.057 162.211C224.451 164.093 225.846 165.974 227.241 167.856" stroke="#4E1A0A" stroke-width="3" stroke-miterlimit="10"/>
<path d="M254.111 141.333C257.594 141.706 261.076 142.087 264.559 142.46" stroke="#4E1A0A" stroke-width="3" stroke-miterlimit="10"/>
<path d="M263.673 161.93V168.138" stroke="#4E1A0A" stroke-width="3" stroke-miterlimit="10"/>
<path d="M280.095 124.972C282.183 125.909 284.279 126.853 286.367 127.79" stroke="#4E1A0A" stroke-width="3" stroke-miterlimit="10"/>
<path d="M262.48 114.529C260.883 115.092 259.295 115.656 257.699 116.219" stroke="#4E1A0A" stroke-width="3" stroke-miterlimit="10"/>
<path d="M292.639 158.83C293.034 161.747 293.438 164.665 293.832 167.574" stroke="#4E1A0A" stroke-width="3" stroke-miterlimit="10"/>
<path d="M33.7212 137.67C35.4143 137.479 37.1073 137.297 38.8004 137.106" stroke="#4E1A0A" stroke-width="3" stroke-miterlimit="10"/>
<path d="M50.1432 152.058C51.4415 149.522 52.7311 146.977 54.0294 144.441" stroke="#4E1A0A" stroke-width="3" stroke-miterlimit="10"/>
<path d="M74.9341 154.313H81.8029" stroke="#4E1A0A" stroke-width="3" stroke-miterlimit="10"/>
<path d="M96.7336 167.292C97.9267 165.784 99.1197 164.284 100.322 162.775" stroke="#4E1A0A" stroke-width="3" stroke-miterlimit="10"/>
<path d="M108.98 199.177C108.682 200.868 108.383 202.567 108.085 204.258" stroke="#4E1A0A" stroke-width="3" stroke-miterlimit="10"/>
<path d="M160.939 199.741H165.72" stroke="#4E1A0A" stroke-width="3" stroke-miterlimit="10"/>
<path d="M151.088 172.091C150.193 173.6 149.298 175.1 148.403 176.608" stroke="#4E1A0A" stroke-width="3" stroke-miterlimit="10"/>
<path d="M245.154 185.634C246.944 185.162 248.742 184.698 250.532 184.225" stroke="#4E1A0A" stroke-width="3" stroke-miterlimit="10"/>
</g>
<defs>
<clipPath id="clip0_16_218">
<rect width="308" height="215" fill="white"/>
</clipPath>
</defs>
</svg>
