<svg width="37" height="27" viewBox="0 0 37 27" fill="none" xmlns="http://www.w3.org/2000/svg">
<path fill-rule="evenodd" clip-rule="evenodd" d="M27.384 9.58677C27.3988 9.37634 27.4064 9.16391 27.4064 8.94972C27.4064 4.00693 23.3994 0 18.4566 0C13.5138 0 9.50692 4.00693 9.50692 8.94972C9.50692 9.1639 9.51445 9.37633 9.52924 9.58675C5.79874 11.3982 2.70129 14.3097 0.658541 17.8994C0.425036 18.3097 0.205313 18.7289 0 19.1564H1.4052H35.508H36.9132C36.7079 18.7289 36.4882 18.3097 36.2547 17.8994C34.212 14.3097 31.1145 11.3982 27.384 9.58677ZM27.194 10.8967C24.5726 9.55536 21.6028 8.79893 18.4566 8.79893C15.3105 8.79893 12.3406 9.55536 9.71929 10.8966C9.62479 10.4706 9.56064 10.0332 9.52924 9.58675C12.2271 8.27671 15.2561 7.54195 18.4566 7.54195C21.6572 7.54195 24.6862 8.27672 27.384 9.58677C27.3526 10.0332 27.2885 10.4707 27.194 10.8967ZM18.4843 17.8994C22.7462 17.8865 26.3071 14.8946 27.194 10.8967C30.3199 12.4962 32.9503 14.9274 34.7928 17.8994H18.4843ZM18.4843 17.8994C18.4751 17.8994 18.4659 17.8994 18.4566 17.8994C18.4474 17.8994 18.4382 17.8994 18.4289 17.8994H18.4843ZM18.4289 17.8994H2.1204C3.96299 14.9274 6.59333 12.4961 9.71929 10.8966C10.6062 14.8946 14.167 17.8865 18.4289 17.8994Z" fill="white"/>
<circle cx="18.4567" cy="8.94972" r="8.32123" stroke="white" stroke-width="1.25698"/>
<line x1="9.50696" y1="21.1425" x2="27.4064" y2="21.1425" stroke="white" stroke-width="1.25698"/>
<line x1="12.75" y1="23.7568" x2="24.1634" y2="23.7568" stroke="white" stroke-width="1.25698"/>
<line x1="14.2081" y1="26.3715" x2="22.7053" y2="26.3715" stroke="white" stroke-width="1.25698"/>
</svg>
